# Blender 4.5.3 LTS
# www.blender.org
mtllib ring.mtl
o Torus
v 2.223714 0.000000 -0.000000
v 2.190747 0.062306 0.000000
v 2.100519 0.107999 0.000000
v 1.977049 0.124755 0.000000
v 1.853581 0.108003 -0.000000
v 1.763352 0.062311 -0.000000
v 1.730381 -0.000000 -0.000000
v 1.763352 -0.062311 -0.000000
v 1.853581 -0.108003 0.000000
v 1.977049 -0.124755 0.000000
v 2.100519 -0.107999 -0.000000
v 2.190747 -0.062306 -0.000000
v 2.204690 0.000000 -0.291020
v 2.172005 0.062306 -0.286705
v 2.082549 0.107999 -0.274897
v 1.960135 0.124755 -0.258738
v 1.837723 0.108003 -0.242580
v 1.748266 0.062311 -0.230772
v 1.715578 -0.000000 -0.226457
v 1.748266 -0.062311 -0.230771
v 1.837723 -0.108003 -0.242580
v 1.960135 -0.124755 -0.258738
v 2.082549 -0.107999 -0.274897
v 2.172005 -0.062306 -0.286705
v 2.147943 0.000000 -0.577060
v 2.116099 0.062306 -0.568505
v 2.028946 0.107999 -0.545090
v 1.909683 0.124755 -0.513050
v 1.790422 0.108003 -0.481009
v 1.703267 0.062311 -0.457594
v 1.671420 -0.000000 -0.449039
v 1.703267 -0.062311 -0.457595
v 1.790421 -0.108003 -0.481009
v 1.909683 -0.124755 -0.513050
v 2.028946 -0.107999 -0.545090
v 2.116099 -0.062306 -0.568505
v 2.054444 -0.000000 -0.853226
v 2.023987 0.062306 -0.840577
v 1.940627 0.107999 -0.805957
v 1.826555 0.124755 -0.758582
v 1.712485 0.108003 -0.711208
v 1.629125 0.062311 -0.676588
v 1.598664 -0.000000 -0.663937
v 1.629125 -0.062311 -0.676588
v 1.712485 -0.108003 -0.711208
v 1.826555 -0.124755 -0.758582
v 1.940627 -0.107999 -0.805957
v 2.023987 -0.062306 -0.840577
v 1.925793 -0.000000 -1.114794
v 1.897243 0.062306 -1.098268
v 1.819103 0.107999 -1.053034
v 1.712175 0.124755 -0.991136
v 1.605248 0.108003 -0.929239
v 1.527107 0.062311 -0.884005
v 1.498554 -0.000000 -0.867476
v 1.527107 -0.062311 -0.884005
v 1.605248 -0.108003 -0.929239
v 1.712175 -0.124755 -0.991136
v 1.819103 -0.107999 -1.053034
v 1.897243 -0.062306 -1.098267
v 1.764191 -0.000000 -1.357287
v 1.738037 0.062306 -1.337165
v 1.666454 0.107999 -1.282093
v 1.568499 0.124755 -1.206730
v 1.470545 0.108003 -1.131369
v 1.398961 0.062311 -1.076296
v 1.372804 -0.000000 -1.056172
v 1.398961 -0.062311 -1.076296
v 1.470545 -0.108003 -1.131369
v 1.568499 -0.124755 -1.206730
v 1.666454 -0.107999 -1.282093
v 1.738037 -0.062306 -1.337165
v 1.572403 -0.000000 -1.576557
v 1.549092 0.062306 -1.553184
v 1.485291 0.107999 -1.489215
v 1.397985 0.124755 -1.401678
v 1.310679 0.108003 -1.314142
v 1.246878 0.062311 -1.250172
v 1.223564 -0.000000 -1.226797
v 1.246878 -0.062311 -1.250172
v 1.310679 -0.108003 -1.314142
v 1.397985 -0.124755 -1.401678
v 1.485291 -0.107999 -1.489215
v 1.549092 -0.062306 -1.553184
v 1.353712 0.000000 -1.768851
v 1.333643 0.062306 -1.742628
v 1.278715 0.107999 -1.670856
v 1.203551 0.124755 -1.572642
v 1.128389 0.108003 -1.474429
v 1.073461 0.062311 -1.402656
v 1.053390 -0.000000 -1.376430
v 1.073461 -0.062311 -1.402656
v 1.128389 -0.108003 -1.474429
v 1.203551 -0.124755 -1.572642
v 1.278715 -0.107999 -1.670856
v 1.333643 -0.062306 -1.742628
v 1.111857 -0.000000 -1.930880
v 1.095373 0.062306 -1.902254
v 1.050259 0.107999 -1.823908
v 0.988524 0.124755 -1.716698
v 0.926790 0.108003 -1.609489
v 0.881676 0.062311 -1.531142
v 0.865191 -0.000000 -1.502513
v 0.881676 -0.062311 -1.531142
v 0.926790 -0.108003 -1.609488
v 0.988524 -0.124755 -1.716698
v 1.050259 -0.107999 -1.823908
v 1.095373 -0.062306 -1.902255
v 0.850979 -0.000000 -2.059871
v 0.838363 0.062306 -2.029333
v 0.803834 0.107999 -1.945753
v 0.756584 0.124755 -1.831380
v 0.709335 0.108003 -1.717009
v 0.674806 0.062311 -1.633428
v 0.662189 -0.000000 -1.602887
v 0.674806 -0.062311 -1.633428
v 0.709335 -0.108003 -1.717009
v 0.756584 -0.124755 -1.831380
v 0.803834 -0.107999 -1.945753
v 0.838363 -0.062306 -2.029333
v 0.575540 0.000000 -2.153617
v 0.567007 0.062306 -2.121689
v 0.543654 0.107999 -2.034305
v 0.511698 0.124755 -1.914728
v 0.479742 0.108003 -1.795151
v 0.456389 0.062311 -1.707767
v 0.447856 -0.000000 -1.675835
v 0.456389 -0.062311 -1.707766
v 0.479742 -0.108003 -1.795151
v 0.511698 -0.124755 -1.914728
v 0.543654 -0.107999 -2.034305
v 0.567007 -0.062306 -2.121689
v 0.290252 0.000000 -2.210514
v 0.285949 0.062306 -2.177743
v 0.274172 0.107999 -2.088050
v 0.258056 0.124755 -1.965313
v 0.241940 0.108003 -1.842578
v 0.230163 0.062311 -1.752885
v 0.225860 -0.000000 -1.720110
v 0.230163 -0.062311 -1.752884
v 0.241940 -0.108003 -1.842578
v 0.258056 -0.124755 -1.965313
v 0.274172 -0.107999 -2.088051
v 0.285949 -0.062306 -2.177743
v 0.000000 -0.000000 -2.229589
v 0.000000 0.062306 -2.196534
v 0.000000 0.107999 -2.106068
v 0.000000 0.124755 -1.982272
v 0.000000 0.108003 -1.858477
v 0.000000 0.062311 -1.768010
v 0.000000 -0.000000 -1.734952
v 0.000000 -0.062311 -1.768010
v 0.000000 -0.108003 -1.858477
v 0.000000 -0.124755 -1.982272
v 0.000000 -0.107999 -2.106068
v 0.000000 -0.062306 -2.196534
v -0.290253 -0.000000 -2.210514
v -0.285950 0.062306 -2.177742
v -0.274173 0.107999 -2.088050
v -0.258057 0.124755 -1.965313
v -0.241941 0.108003 -1.842578
v -0.230164 0.062311 -1.752884
v -0.225860 0.000000 -1.720109
v -0.230164 -0.062311 -1.752884
v -0.241941 -0.108003 -1.842578
v -0.258057 -0.124755 -1.965313
v -0.274173 -0.107999 -2.088050
v -0.285950 -0.062306 -2.177743
v -0.575539 -0.000000 -2.153617
v -0.567007 0.062306 -2.121690
v -0.543654 0.107999 -2.034305
v -0.511698 0.124755 -1.914727
v -0.479742 0.108003 -1.795151
v -0.456389 0.062311 -1.707767
v -0.447855 -0.000000 -1.675835
v -0.456389 -0.062311 -1.707767
v -0.479742 -0.108003 -1.795151
v -0.511698 -0.124755 -1.914727
v -0.543654 -0.107999 -2.034306
v -0.567007 -0.062306 -2.121690
v -0.850979 0.000000 -2.059871
v -0.838363 0.062306 -2.029333
v -0.803834 0.107999 -1.945753
v -0.756584 0.124755 -1.831380
v -0.709335 0.108003 -1.717009
v -0.674806 0.062311 -1.633428
v -0.662188 0.000000 -1.602887
v -0.674806 -0.062311 -1.633428
v -0.709335 -0.108003 -1.717009
v -0.756584 -0.124755 -1.831380
v -0.803834 -0.107999 -1.945753
v -0.838363 -0.062306 -2.029333
v -1.111857 0.000000 -1.930881
v -1.095373 0.062306 -1.902255
v -1.050259 0.107999 -1.823909
v -0.988524 0.124755 -1.716698
v -0.926790 0.108003 -1.609489
v -0.881676 0.062311 -1.531142
v -0.865190 0.000000 -1.502513
v -0.881676 -0.062311 -1.531142
v -0.926790 -0.108003 -1.609489
v -0.988524 -0.124755 -1.716698
v -1.050259 -0.107999 -1.823909
v -1.095373 -0.062306 -1.902255
v -1.353711 0.000000 -1.768851
v -1.333642 0.062306 -1.742628
v -1.278715 0.107999 -1.670856
v -1.203551 0.124755 -1.572642
v -1.128389 0.108003 -1.474429
v -1.073461 0.062311 -1.402657
v -1.053389 0.000000 -1.376430
v -1.073460 -0.062311 -1.402657
v -1.128389 -0.108003 -1.474429
v -1.203551 -0.124755 -1.572642
v -1.278715 -0.107999 -1.670856
v -1.333642 -0.062306 -1.742628
v -1.572404 0.000000 -1.576556
v -1.549093 0.062306 -1.553184
v -1.485292 0.107999 -1.489214
v -1.397985 0.124755 -1.401677
v -1.310680 0.108003 -1.314142
v -1.246878 0.062311 -1.250172
v -1.223565 -0.000000 -1.226796
v -1.246878 -0.062311 -1.250171
v -1.310680 -0.108003 -1.314142
v -1.397985 -0.124755 -1.401677
v -1.485292 -0.107999 -1.489214
v -1.549093 -0.062306 -1.553184
v -1.764191 0.000000 -1.357287
v -1.738036 0.062306 -1.337165
v -1.666454 0.107999 -1.282093
v -1.568498 0.124755 -1.206731
v -1.470545 0.108003 -1.131369
v -1.398961 0.062311 -1.076296
v -1.372804 -0.000000 -1.056172
v -1.398961 -0.062311 -1.076296
v -1.470544 -0.108003 -1.131369
v -1.568498 -0.124755 -1.206731
v -1.666454 -0.107999 -1.282093
v -1.738036 -0.062306 -1.337165
v -1.925793 0.000000 -1.114795
v -1.897242 0.062306 -1.098268
v -1.819103 0.107999 -1.053034
v -1.712174 0.124755 -0.991136
v -1.605248 0.108003 -0.929239
v -1.527107 0.062311 -0.884005
v -1.498554 -0.000000 -0.867477
v -1.527107 -0.062311 -0.884005
v -1.605248 -0.108003 -0.929239
v -1.712174 -0.124755 -0.991136
v -1.819103 -0.107999 -1.053034
v -1.897242 -0.062306 -1.098268
v -2.054444 0.000000 -0.853227
v -2.023986 0.062306 -0.840577
v -1.940627 0.107999 -0.805957
v -1.826555 0.124755 -0.758583
v -1.712485 0.108003 -0.711209
v -1.629124 0.062311 -0.676588
v -1.598664 -0.000000 -0.663938
v -1.629124 -0.062311 -0.676588
v -1.712485 -0.108003 -0.711209
v -1.826555 -0.124755 -0.758583
v -1.940627 -0.107999 -0.805957
v -2.023986 -0.062306 -0.840577
v -2.147943 -0.000000 -0.577060
v -2.116100 0.062306 -0.568505
v -2.028946 0.107999 -0.545090
v -1.909683 0.124755 -0.513049
v -1.790422 0.108003 -0.481009
v -1.703267 0.062311 -0.457594
v -1.671420 -0.000000 -0.449038
v -1.703267 -0.062311 -0.457594
v -1.790422 -0.108003 -0.481009
v -1.909683 -0.124755 -0.513049
v -2.028946 -0.107999 -0.545090
v -2.116100 -0.062306 -0.568505
v -2.204690 -0.000000 -0.291020
v -2.172005 0.062306 -0.286706
v -2.082549 0.107999 -0.274897
v -1.960135 0.124755 -0.258739
v -1.837723 0.108003 -0.242580
v -1.748266 0.062311 -0.230772
v -1.715577 0.000000 -0.226457
v -1.748266 -0.062311 -0.230772
v -1.837723 -0.108003 -0.242580
v -1.960135 -0.124755 -0.258739
v -2.082549 -0.107999 -0.274897
v -2.172005 -0.062306 -0.286706
v -2.223714 -0.000000 -0.000000
v -2.190747 0.062306 -0.000000
v -2.100519 0.107999 -0.000000
v -1.977049 0.124755 -0.000000
v -1.853581 0.108003 -0.000000
v -1.763352 0.062311 -0.000000
v -1.730381 0.000000 -0.000000
v -1.763352 -0.062311 -0.000000
v -1.853581 -0.108003 -0.000000
v -1.977049 -0.124755 -0.000000
v -2.100519 -0.107999 -0.000000
v -2.190747 -0.062306 -0.000000
v -2.204690 -0.000000 0.291020
v -2.172005 0.062306 0.286706
v -2.082549 0.107999 0.274897
v -1.960135 0.124755 0.258739
v -1.837723 0.108003 0.242580
v -1.748266 0.062311 0.230772
v -1.715577 0.000000 0.226457
v -1.748266 -0.062311 0.230772
v -1.837723 -0.108003 0.242580
v -1.960135 -0.124755 0.258739
v -2.082549 -0.107999 0.274897
v -2.172005 -0.062306 0.286706
v -2.147943 -0.000000 0.577060
v -2.116099 0.062306 0.568505
v -2.028946 0.107999 0.545090
v -1.909683 0.124755 0.513049
v -1.790422 0.108003 0.481009
v -1.703267 0.062311 0.457594
v -1.671420 0.000000 0.449039
v -1.703267 -0.062311 0.457594
v -1.790422 -0.108003 0.481009
v -1.909683 -0.124755 0.513049
v -2.028946 -0.107999 0.545090
v -2.116100 -0.062306 0.568505
v -2.054444 0.000000 0.853226
v -2.023987 0.062306 0.840576
v -1.940627 0.107999 0.805957
v -1.826556 0.124755 0.758582
v -1.712486 0.108003 0.711208
v -1.629125 0.062311 0.676588
v -1.598664 0.000000 0.663937
v -1.629125 -0.062311 0.676587
v -1.712486 -0.108003 0.711208
v -1.826555 -0.124755 0.758582
v -1.940627 -0.107999 0.805957
v -2.023987 -0.062306 0.840576
v -1.925793 0.000000 1.114794
v -1.897243 0.062306 1.098267
v -1.819103 0.107999 1.053034
v -1.712175 0.124755 0.991136
v -1.605248 0.108003 0.929238
v -1.527108 0.062311 0.884005
v -1.498554 0.000000 0.867476
v -1.527108 -0.062311 0.884005
v -1.605248 -0.108003 0.929238
v -1.712175 -0.124755 0.991136
v -1.819103 -0.107999 1.053034
v -1.897243 -0.062306 1.098267
v -1.764191 0.000000 1.357287
v -1.738036 0.062306 1.337165
v -1.666454 0.107999 1.282093
v -1.568498 0.124755 1.206731
v -1.470544 0.108003 1.131369
v -1.398961 0.062311 1.076296
v -1.372804 0.000000 1.056172
v -1.398961 -0.062311 1.076296
v -1.470545 -0.108003 1.131369
v -1.568498 -0.124755 1.206731
v -1.666454 -0.107999 1.282093
v -1.738036 -0.062306 1.337165
v -1.572404 0.000000 1.576557
v -1.549092 0.062306 1.553184
v -1.485292 0.107999 1.489215
v -1.397985 0.124755 1.401677
v -1.310680 0.108003 1.314142
v -1.246878 0.062311 1.250171
v -1.223565 0.000000 1.226796
v -1.246878 -0.062311 1.250171
v -1.310680 -0.108003 1.314142
v -1.397985 -0.124755 1.401677
v -1.485292 -0.107999 1.489215
v -1.549092 -0.062306 1.553184
v -1.353712 0.000000 1.768851
v -1.333643 0.062306 1.742627
v -1.278716 0.107999 1.670856
v -1.203552 0.124755 1.572641
v -1.128389 0.108003 1.474429
v -1.073461 0.062311 1.402656
v -1.053390 0.000000 1.376430
v -1.073461 -0.062311 1.402656
v -1.128389 -0.108003 1.474429
v -1.203552 -0.124755 1.572641
v -1.278716 -0.107999 1.670855
v -1.333643 -0.062306 1.742627
v -1.111857 0.000000 1.930881
v -1.095373 0.062306 1.902255
v -1.050259 0.107999 1.823909
v -0.988524 0.124755 1.716698
v -0.926790 0.108003 1.609489
v -0.881676 0.062311 1.531142
v -0.865190 0.000000 1.502513
v -0.881676 -0.062311 1.531142
v -0.926790 -0.108003 1.609489
v -0.988524 -0.124755 1.716698
v -1.050259 -0.107999 1.823909
v -1.095373 -0.062306 1.902255
v -0.850979 0.000000 2.059871
v -0.838363 0.062306 2.029333
v -0.803834 0.107999 1.945753
v -0.756584 0.124755 1.831380
v -0.709335 0.108003 1.717009
v -0.674806 0.062311 1.633428
v -0.662188 -0.000000 1.602887
v -0.674806 -0.062311 1.633428
v -0.709335 -0.108003 1.717009
v -0.756584 -0.124755 1.831380
v -0.803834 -0.107999 1.945753
v -0.838363 -0.062306 2.029333
v -0.575540 0.000000 2.153617
v -0.567008 0.062306 2.121689
v -0.543655 0.107999 2.034305
v -0.511699 0.124755 1.914727
v -0.479743 0.108003 1.795151
v -0.456390 0.062311 1.707767
v -0.447856 -0.000000 1.675835
v -0.456390 -0.062311 1.707766
v -0.479743 -0.108003 1.795151
v -0.511699 -0.124755 1.914727
v -0.543655 -0.107999 2.034305
v -0.567008 -0.062306 2.121689
v -0.290254 0.000000 2.210514
v -0.285951 0.062306 2.177743
v -0.274174 0.107999 2.088050
v -0.258058 0.124755 1.965313
v -0.241942 0.108003 1.842578
v -0.230165 0.062311 1.752884
v -0.225861 -0.000000 1.720110
v -0.230164 -0.062311 1.752884
v -0.241942 -0.108003 1.842578
v -0.258058 -0.124755 1.965313
v -0.274174 -0.107999 2.088050
v -0.285951 -0.062306 2.177743
v 0.000000 0.000000 2.229589
v 0.000000 0.062306 2.196534
v 0.000000 0.107999 2.106068
v 0.000000 0.124755 1.982272
v 0.000000 0.108003 1.858477
v 0.000000 0.062311 1.768010
v 0.000000 -0.000000 1.734952
v 0.000000 -0.062311 1.768010
v 0.000000 -0.108003 1.858477
v 0.000000 -0.124755 1.982272
v 0.000000 -0.107999 2.106068
v 0.000000 -0.062306 2.196534
v 0.290252 0.000000 2.210514
v 0.285949 0.062306 2.177743
v 0.274172 0.107999 2.088050
v 0.258056 0.124755 1.965313
v 0.241941 0.108003 1.842578
v 0.230163 0.062311 1.752885
v 0.225860 -0.000000 1.720110
v 0.230163 -0.062311 1.752884
v 0.241940 -0.108003 1.842578
v 0.258056 -0.124755 1.965313
v 0.274172 -0.107999 2.088050
v 0.285949 -0.062306 2.177743
v 0.575538 -0.000000 2.153618
v 0.567006 0.062306 2.121690
v 0.543653 0.107999 2.034306
v 0.511697 0.124755 1.914728
v 0.479741 0.108003 1.795151
v 0.456388 0.062311 1.707767
v 0.447855 -0.000000 1.675835
v 0.456388 -0.062311 1.707767
v 0.479741 -0.108003 1.795151
v 0.511697 -0.124755 1.914728
v 0.543653 -0.107999 2.034306
v 0.567006 -0.062306 2.121690
v 0.850979 -0.000000 2.059871
v 0.838363 0.062306 2.029333
v 0.803834 0.107999 1.945753
v 0.756584 0.124755 1.831380
v 0.709335 0.108003 1.717009
v 0.674806 0.062311 1.633428
v 0.662188 0.000000 1.602887
v 0.674806 -0.062311 1.633428
v 0.709335 -0.108003 1.717009
v 0.756584 -0.124755 1.831380
v 0.803834 -0.107999 1.945753
v 0.838363 -0.062306 2.029333
v 1.111857 -0.000000 1.930880
v 1.095373 0.062306 1.902255
v 1.050259 0.107999 1.823908
v 0.988524 0.124755 1.716698
v 0.926790 0.108003 1.609488
v 0.881676 0.062311 1.531141
v 0.865191 -0.000000 1.502513
v 0.881676 -0.062311 1.531142
v 0.926790 -0.108003 1.609488
v 0.988525 -0.124755 1.716698
v 1.050259 -0.107999 1.823908
v 1.095374 -0.062306 1.902255
v 1.353711 -0.000000 1.768852
v 1.333642 0.062306 1.742628
v 1.278715 0.107999 1.670856
v 1.203551 0.124755 1.572642
v 1.128388 0.108003 1.474429
v 1.073460 0.062311 1.402657
v 1.053389 -0.000000 1.376430
v 1.073460 -0.062311 1.402657
v 1.128388 -0.108003 1.474429
v 1.203551 -0.124755 1.572642
v 1.278714 -0.107999 1.670856
v 1.333642 -0.062306 1.742628
v 1.572402 -0.000000 1.576558
v 1.549091 0.062306 1.553185
v 1.485291 0.107999 1.489216
v 1.397984 0.124755 1.401679
v 1.310679 0.108003 1.314143
v 1.246877 0.062311 1.250172
v 1.223564 0.000000 1.226797
v 1.246877 -0.062311 1.250172
v 1.310679 -0.108003 1.314143
v 1.397984 -0.124755 1.401679
v 1.485291 -0.107999 1.489216
v 1.549091 -0.062306 1.553185
v 1.764191 0.000000 1.357287
v 1.738037 0.062306 1.337165
v 1.666454 0.107999 1.282093
v 1.568499 0.124755 1.206730
v 1.470545 0.108003 1.131369
v 1.398961 0.062311 1.076296
v 1.372804 -0.000000 1.056172
v 1.398961 -0.062311 1.076296
v 1.470545 -0.108003 1.131369
v 1.568499 -0.124755 1.206730
v 1.666454 -0.107999 1.282093
v 1.738037 -0.062306 1.337165
v 1.925793 -0.000000 1.114795
v 1.897243 0.062306 1.098267
v 1.819103 0.107999 1.053034
v 1.712175 0.124755 0.991136
v 1.605248 0.108003 0.929239
v 1.527107 0.062311 0.884005
v 1.498554 -0.000000 0.867476
v 1.527107 -0.062311 0.884005
v 1.605248 -0.108003 0.929239
v 1.712175 -0.124755 0.991136
v 1.819103 -0.107999 1.053034
v 1.897243 -0.062306 1.098267
v 2.054444 -0.000000 0.853227
v 2.023986 0.062306 0.840578
v 1.940626 0.107999 0.805958
v 1.826555 0.124755 0.758583
v 1.712485 0.108003 0.711209
v 1.629124 0.062311 0.676589
v 1.598664 -0.000000 0.663938
v 1.629124 -0.062311 0.676589
v 1.712485 -0.108003 0.711209
v 1.826555 -0.124755 0.758583
v 1.940626 -0.107999 0.805958
v 2.023986 -0.062306 0.840578
v 2.147943 0.000000 0.577059
v 2.116099 0.062306 0.568504
v 2.028946 0.107999 0.545090
v 1.909683 0.124755 0.513049
v 1.790422 0.108003 0.481009
v 1.703267 0.062311 0.457594
v 1.671420 -0.000000 0.449038
v 1.703267 -0.062311 0.457594
v 1.790422 -0.108003 0.481009
v 1.909683 -0.124755 0.513049
v 2.028946 -0.107999 0.545090
v 2.116099 -0.062306 0.568504
v 2.204690 -0.000000 0.291020
v 2.172005 0.062306 0.286705
v 2.082549 0.107999 0.274897
v 1.960135 0.124755 0.258738
v 1.837723 0.108003 0.242580
v 1.748266 0.062311 0.230772
v 1.715578 -0.000000 0.226457
v 1.748266 -0.062311 0.230771
v 1.837723 -0.108003 0.242580
v 1.960135 -0.124755 0.258738
v 2.082549 -0.107999 0.274897
v 2.172005 -0.062306 0.286705
vn 0.8824 0.4669 -0.0577
vn 0.4516 0.8917 -0.0295
vn 0.1345 0.9909 -0.0088
vn -0.1344 0.9909 0.0088
vn -0.4516 0.8917 0.0295
vn -0.8824 0.4669 0.0577
vn -0.8824 -0.4669 0.0577
vn -0.4516 -0.8917 0.0295
vn -0.1344 -0.9909 0.0088
vn 0.1345 -0.9909 -0.0088
vn 0.4516 -0.8917 -0.0295
vn 0.8824 -0.4669 -0.0577
vn 0.8674 0.4669 -0.1721
vn 0.4439 0.8918 -0.0881
vn 0.1322 0.9909 -0.0262
vn -0.1321 0.9909 0.0262
vn -0.4439 0.8918 0.0881
vn -0.8674 0.4669 0.1721
vn -0.8674 -0.4669 0.1721
vn -0.4439 -0.8918 0.0881
vn -0.1321 -0.9909 0.0262
vn 0.1322 -0.9909 -0.0262
vn 0.4439 -0.8918 -0.0881
vn 0.8674 -0.4669 -0.1721
vn 0.8376 0.4670 -0.2836
vn 0.4286 0.8918 -0.1451
vn 0.1276 0.9909 -0.0432
vn -0.1276 0.9909 0.0432
vn -0.4285 0.8918 0.1451
vn -0.8376 0.4670 0.2836
vn -0.8376 -0.4670 0.2836
vn -0.4285 -0.8918 0.1451
vn -0.1276 -0.9909 0.0432
vn 0.1276 -0.9909 -0.0432
vn 0.4286 -0.8918 -0.1451
vn 0.8376 -0.4670 -0.2836
vn 0.7934 0.4671 -0.3902
vn 0.4059 0.8918 -0.1997
vn 0.1209 0.9909 -0.0594
vn -0.1208 0.9909 0.0594
vn -0.4059 0.8918 0.1996
vn -0.7934 0.4671 0.3902
vn -0.7934 -0.4671 0.3902
vn -0.4059 -0.8918 0.1996
vn -0.1208 -0.9909 0.0594
vn 0.1209 -0.9909 -0.0594
vn 0.4059 -0.8918 -0.1997
vn 0.7934 -0.4671 -0.3902
vn 0.7357 0.4672 -0.4903
vn 0.3764 0.8919 -0.2508
vn 0.1120 0.9909 -0.0747
vn -0.1120 0.9909 0.0747
vn -0.3763 0.8919 0.2508
vn -0.7357 0.4672 0.4903
vn -0.7357 -0.4672 0.4903
vn -0.3763 -0.8919 0.2508
vn -0.1120 -0.9909 0.0747
vn 0.1120 -0.9909 -0.0747
vn 0.3764 -0.8919 -0.2508
vn 0.7357 -0.4672 -0.4903
vn 0.6655 0.4673 -0.5821
vn 0.3403 0.8919 -0.2977
vn 0.1013 0.9909 -0.0886
vn -0.1013 0.9909 0.0886
vn -0.3403 0.8920 0.2977
vn -0.6655 0.4673 0.5820
vn -0.6655 -0.4673 0.5820
vn -0.3403 -0.8920 0.2977
vn -0.1013 -0.9909 0.0886
vn 0.1013 -0.9909 -0.0886
vn 0.3403 -0.8919 -0.2977
vn 0.6655 -0.4673 -0.5821
vn 0.5837 0.4674 -0.6639
vn 0.2985 0.8920 -0.3395
vn 0.0889 0.9909 -0.1011
vn -0.0888 0.9909 0.1010
vn -0.2985 0.8920 0.3394
vn -0.5837 0.4675 0.6639
vn -0.5837 -0.4675 0.6639
vn -0.2985 -0.8920 0.3394
vn -0.0888 -0.9909 0.1010
vn 0.0889 -0.9909 -0.1011
vn 0.2985 -0.8920 -0.3395
vn 0.5837 -0.4674 -0.6639
vn 0.4920 0.4676 -0.7344
vn 0.2515 0.8921 -0.3754
vn 0.0749 0.9909 -0.1118
vn -0.0749 0.9909 0.1117
vn -0.2515 0.8921 0.3754
vn -0.4920 0.4676 0.7344
vn -0.4920 -0.4676 0.7344
vn -0.2515 -0.8921 0.3754
vn -0.0749 -0.9909 0.1117
vn 0.0749 -0.9909 -0.1118
vn 0.2515 -0.8921 -0.3754
vn 0.4920 -0.4676 -0.7344
vn 0.3918 0.4677 -0.7923
vn 0.2002 0.8921 -0.4050
vn 0.0596 0.9909 -0.1205
vn -0.0596 0.9909 0.1205
vn -0.2002 0.8921 0.4050
vn -0.3918 0.4677 0.7923
vn -0.3918 -0.4677 0.7923
vn -0.2002 -0.8921 0.4050
vn -0.0596 -0.9909 0.1205
vn 0.0596 -0.9909 -0.1205
vn 0.2002 -0.8921 -0.4050
vn 0.3918 -0.4677 -0.7923
vn 0.2848 0.4678 -0.8367
vn 0.1455 0.8922 -0.4276
vn 0.0433 0.9909 -0.1273
vn -0.0433 0.9909 0.1272
vn -0.1455 0.8922 0.4276
vn -0.2848 0.4678 0.8367
vn -0.2848 -0.4678 0.8367
vn -0.1455 -0.8922 0.4276
vn -0.0433 -0.9909 0.1272
vn 0.0433 -0.9909 -0.1273
vn 0.1455 -0.8922 -0.4276
vn 0.2848 -0.4678 -0.8367
vn 0.1729 0.4678 -0.8668
vn 0.0883 0.8922 -0.4429
vn 0.0263 0.9909 -0.1318
vn -0.0263 0.9909 0.1318
vn -0.0883 0.8922 0.4429
vn -0.1729 0.4678 0.8667
vn -0.1729 -0.4678 0.8667
vn -0.0883 -0.8922 0.4429
vn -0.0263 -0.9909 0.1318
vn 0.0263 -0.9909 -0.1318
vn 0.0883 -0.8922 -0.4429
vn 0.1729 -0.4678 -0.8667
vn 0.0580 0.4679 -0.8819
vn 0.0296 0.8922 -0.4506
vn 0.0088 0.9909 -0.1341
vn -0.0088 0.9909 0.1341
vn -0.0296 0.8922 0.4506
vn -0.0580 0.4679 0.8819
vn -0.0580 -0.4679 0.8819
vn -0.0296 -0.8922 0.4506
vn -0.0088 -0.9909 0.1341
vn 0.0088 -0.9909 -0.1341
vn 0.0296 -0.8922 -0.4506
vn 0.0580 -0.4679 -0.8819
vn -0.0580 0.4679 -0.8819
vn -0.0296 0.8922 -0.4506
vn -0.0088 0.9909 -0.1341
vn 0.0088 0.9909 0.1341
vn 0.0296 0.8922 0.4506
vn 0.0580 0.4679 0.8819
vn 0.0580 -0.4679 0.8819
vn 0.0296 -0.8922 0.4506
vn 0.0088 -0.9909 0.1341
vn -0.0088 -0.9909 -0.1341
vn -0.0296 -0.8922 -0.4506
vn -0.0580 -0.4679 -0.8819
vn -0.1729 0.4678 -0.8668
vn -0.0883 0.8922 -0.4429
vn -0.0263 0.9909 -0.1318
vn 0.0263 0.9909 0.1318
vn 0.0883 0.8922 0.4429
vn 0.1729 0.4678 0.8667
vn 0.1729 -0.4678 0.8667
vn 0.0883 -0.8922 0.4429
vn 0.0263 -0.9909 0.1318
vn -0.0263 -0.9909 -0.1318
vn -0.0883 -0.8922 -0.4429
vn -0.1729 -0.4678 -0.8668
vn -0.2848 0.4678 -0.8367
vn -0.1455 0.8922 -0.4276
vn -0.0433 0.9909 -0.1273
vn 0.0433 0.9909 0.1272
vn 0.1455 0.8922 0.4276
vn 0.2848 0.4678 0.8367
vn 0.2848 -0.4678 0.8367
vn 0.1455 -0.8922 0.4276
vn 0.0433 -0.9909 0.1272
vn -0.0433 -0.9909 -0.1273
vn -0.1455 -0.8922 -0.4276
vn -0.2848 -0.4678 -0.8367
vn -0.3918 0.4677 -0.7923
vn -0.2002 0.8921 -0.4050
vn -0.0596 0.9909 -0.1205
vn 0.0596 0.9909 0.1205
vn 0.2002 0.8921 0.4050
vn 0.3918 0.4677 0.7923
vn 0.3918 -0.4677 0.7923
vn 0.2002 -0.8921 0.4050
vn 0.0596 -0.9909 0.1205
vn -0.0596 -0.9909 -0.1205
vn -0.2002 -0.8921 -0.4050
vn -0.3918 -0.4677 -0.7923
vn -0.4920 0.4676 -0.7344
vn -0.2515 0.8921 -0.3754
vn -0.0749 0.9909 -0.1118
vn 0.0749 0.9909 0.1117
vn 0.2515 0.8921 0.3754
vn 0.4920 0.4676 0.7344
vn 0.4920 -0.4676 0.7344
vn 0.2515 -0.8921 0.3754
vn 0.0749 -0.9909 0.1117
vn -0.0749 -0.9909 -0.1118
vn -0.2515 -0.8921 -0.3754
vn -0.4920 -0.4676 -0.7344
vn -0.5837 0.4674 -0.6639
vn -0.2985 0.8920 -0.3395
vn -0.0889 0.9909 -0.1011
vn 0.0888 0.9909 0.1010
vn 0.2985 0.8920 0.3394
vn 0.5837 0.4674 0.6639
vn 0.5837 -0.4675 0.6639
vn 0.2985 -0.8920 0.3394
vn 0.0888 -0.9909 0.1010
vn -0.0889 -0.9909 -0.1011
vn -0.2985 -0.8920 -0.3395
vn -0.5837 -0.4674 -0.6639
vn -0.6655 0.4673 -0.5820
vn -0.3403 0.8919 -0.2977
vn -0.1013 0.9909 -0.0886
vn 0.1013 0.9909 0.0886
vn 0.3403 0.8920 0.2977
vn 0.6655 0.4673 0.5820
vn 0.6655 -0.4673 0.5820
vn 0.3403 -0.8920 0.2977
vn 0.1013 -0.9909 0.0886
vn -0.1013 -0.9909 -0.0886
vn -0.3403 -0.8919 -0.2977
vn -0.6655 -0.4673 -0.5821
vn -0.7357 0.4672 -0.4903
vn -0.3764 0.8919 -0.2508
vn -0.1120 0.9909 -0.0747
vn 0.1120 0.9909 0.0747
vn 0.3763 0.8919 0.2508
vn 0.7357 0.4672 0.4903
vn 0.7357 -0.4672 0.4903
vn 0.3763 -0.8919 0.2508
vn 0.1120 -0.9909 0.0747
vn -0.1120 -0.9909 -0.0747
vn -0.3764 -0.8919 -0.2508
vn -0.7357 -0.4672 -0.4903
vn -0.7934 0.4671 -0.3902
vn -0.4059 0.8918 -0.1997
vn -0.1209 0.9909 -0.0594
vn 0.1208 0.9909 0.0594
vn 0.4059 0.8918 0.1996
vn 0.7934 0.4671 0.3902
vn 0.7934 -0.4671 0.3902
vn 0.4059 -0.8918 0.1996
vn 0.1208 -0.9909 0.0594
vn -0.1209 -0.9909 -0.0594
vn -0.4059 -0.8918 -0.1997
vn -0.7934 -0.4671 -0.3902
vn -0.8376 0.4670 -0.2836
vn -0.4286 0.8918 -0.1451
vn -0.1276 0.9909 -0.0432
vn 0.1276 0.9909 0.0432
vn 0.4285 0.8918 0.1451
vn 0.8376 0.4670 0.2836
vn 0.8376 -0.4670 0.2836
vn 0.4285 -0.8918 0.1451
vn 0.1276 -0.9909 0.0432
vn -0.1276 -0.9909 -0.0432
vn -0.4286 -0.8918 -0.1451
vn -0.8376 -0.4670 -0.2836
vn -0.8674 0.4669 -0.1721
vn -0.4439 0.8918 -0.0881
vn -0.1322 0.9909 -0.0262
vn 0.1321 0.9909 0.0262
vn 0.4439 0.8918 0.0881
vn 0.8674 0.4669 0.1721
vn 0.8674 -0.4669 0.1721
vn 0.4439 -0.8918 0.0881
vn 0.1321 -0.9909 0.0262
vn -0.1322 -0.9909 -0.0262
vn -0.4439 -0.8918 -0.0881
vn -0.8674 -0.4669 -0.1721
vn -0.8824 0.4669 -0.0577
vn -0.4516 0.8917 -0.0295
vn -0.1345 0.9909 -0.0088
vn 0.1344 0.9909 0.0088
vn 0.4516 0.8917 0.0295
vn 0.8824 0.4669 0.0577
vn 0.8824 -0.4669 0.0577
vn 0.4516 -0.8917 0.0295
vn 0.1344 -0.9909 0.0088
vn -0.1345 -0.9909 -0.0088
vn -0.4516 -0.8917 -0.0295
vn -0.8824 -0.4669 -0.0577
vn -0.1345 0.9909 0.0088
vn 0.1344 0.9909 -0.0088
vn 0.1344 -0.9909 -0.0088
vn -0.1345 -0.9909 0.0088
vn -0.1322 0.9909 0.0262
vn 0.1321 0.9909 -0.0262
vn 0.1321 -0.9909 -0.0262
vn -0.1322 -0.9909 0.0262
vn -0.4286 0.8918 0.1451
vn 0.4285 0.8918 -0.1451
vn 0.4285 -0.8918 -0.1451
vn -0.4286 -0.8918 0.1451
vn -0.4059 0.8918 0.1997
vn -0.1209 0.9909 0.0594
vn 0.1208 0.9909 -0.0594
vn 0.4059 0.8918 -0.1996
vn 0.4059 -0.8918 -0.1996
vn 0.1208 -0.9909 -0.0594
vn -0.1209 -0.9909 0.0594
vn -0.4059 -0.8918 0.1997
vn -0.3764 0.8919 0.2508
vn 0.3763 0.8919 -0.2508
vn 0.3763 -0.8919 -0.2508
vn -0.3764 -0.8919 0.2508
vn -0.6655 0.4673 0.5821
vn -0.3403 0.8919 0.2977
vn 0.3403 0.8920 -0.2977
vn 0.6655 0.4673 -0.5820
vn 0.6655 -0.4673 -0.5820
vn 0.3403 -0.8920 -0.2977
vn -0.3403 -0.8919 0.2977
vn -0.5837 0.4674 0.6639
vn -0.2985 0.8920 0.3395
vn -0.0889 0.9909 0.1011
vn 0.0888 0.9909 -0.1010
vn 0.2985 0.8920 -0.3394
vn 0.5837 0.4675 -0.6639
vn 0.5837 -0.4675 -0.6639
vn 0.2985 -0.8920 -0.3394
vn 0.0888 -0.9909 -0.1010
vn -0.0889 -0.9909 0.1011
vn -0.2985 -0.8920 0.3395
vn -0.5837 -0.4674 0.6639
vn -0.0749 0.9909 0.1118
vn 0.0749 0.9909 -0.1117
vn 0.0749 -0.9909 -0.1117
vn -0.0749 -0.9909 0.1118
vn -0.0433 0.9909 0.1273
vn 0.0433 0.9909 -0.1272
vn 0.0433 -0.9909 -0.1272
vn -0.0433 -0.9909 0.1273
vn -0.1729 0.4678 0.8668
vn 0.1729 0.4678 -0.8667
vn -0.1729 -0.4678 0.8668
vn -0.1729 0.4678 -0.8667
vn -0.1729 -0.4678 -0.8667
vn 0.0433 0.9909 0.1273
vn -0.0433 0.9909 -0.1272
vn -0.0433 -0.9909 -0.1272
vn 0.0433 -0.9909 0.1273
vn 0.0749 0.9909 0.1118
vn -0.0749 0.9909 -0.1117
vn -0.0749 -0.9909 -0.1117
vn 0.0749 -0.9909 0.1118
vn 0.2985 0.8920 0.3395
vn 0.0889 0.9909 0.1011
vn -0.0888 0.9909 -0.1010
vn -0.2985 0.8920 -0.3394
vn -0.5837 0.4675 -0.6639
vn -0.5837 -0.4675 -0.6639
vn -0.2985 -0.8920 -0.3394
vn -0.0888 -0.9909 -0.1010
vn 0.0889 -0.9909 0.1011
vn 0.2985 -0.8920 0.3395
vn 0.5837 -0.4674 0.6639
vn 0.6655 0.4673 0.5821
vn 0.3403 0.8919 0.2977
vn -0.3403 0.8920 -0.2977
vn -0.6655 -0.4673 -0.5820
vn -0.3403 -0.8920 -0.2977
vn 0.3403 -0.8919 0.2977
vn 0.6655 -0.4673 0.5821
vn 0.3764 0.8919 0.2508
vn -0.3763 0.8919 -0.2508
vn -0.3763 -0.8919 -0.2508
vn 0.3764 -0.8919 0.2508
vn 0.4059 0.8918 0.1997
vn 0.1209 0.9909 0.0594
vn -0.1208 0.9909 -0.0594
vn -0.4059 0.8918 -0.1996
vn -0.4059 -0.8918 -0.1996
vn -0.1208 -0.9909 -0.0594
vn 0.1209 -0.9909 0.0594
vn 0.4059 -0.8918 0.1997
vn 0.4286 0.8918 0.1451
vn -0.4285 0.8918 -0.1451
vn -0.4285 -0.8918 -0.1451
vn 0.4286 -0.8918 0.1451
vn 0.1322 0.9909 0.0262
vn -0.1321 0.9909 -0.0262
vn -0.1321 -0.9909 -0.0262
vn 0.1322 -0.9909 0.0262
vn 0.1345 0.9909 0.0088
vn -0.1344 0.9909 -0.0088
vn -0.1344 -0.9909 -0.0088
vn 0.1345 -0.9909 0.0088
vn 0.1729 -0.4678 -0.8668
vn 0.5837 0.4675 0.6639
vn -0.6655 0.4673 -0.5821
vn -0.6655 -0.4673 0.5821
vt 0.520833 0.500000
vt 0.500000 0.583333
vt 0.500000 0.500000
vt 0.520833 0.583333
vt 0.500000 0.666667
vt 0.520833 0.666667
vt 0.500000 0.750000
vt 0.520833 0.750000
vt 0.500000 0.833333
vt 0.520833 0.916667
vt 0.500000 0.916667
vt 0.520833 1.000000
vt 0.500000 1.000000
vt 0.520833 0.000000
vt 0.500000 0.083333
vt 0.500000 0.000000
vt 0.520833 0.083333
vt 0.500000 0.166667
vt 0.520833 0.250000
vt 0.500000 0.250000
vt 0.500000 0.333333
vt 0.520833 0.333333
vt 0.500000 0.416667
vt 0.520833 0.416667
vt 0.541667 0.583333
vt 0.541667 0.666667
vt 0.541667 0.750000
vt 0.520833 0.833333
vt 0.541667 0.833333
vt 0.541667 0.916667
vt 0.541667 0.083333
vt 0.541667 0.166667
vt 0.520833 0.166667
vt 0.541667 0.250000
vt 0.541667 0.416667
vt 0.541667 0.500000
vt 0.562500 0.583333
vt 0.562500 0.750000
vt 0.562500 0.833333
vt 0.562500 0.916667
vt 0.541667 1.000000
vt 0.541667 0.000000
vt 0.562500 0.083333
vt 0.562500 0.250000
vt 0.541667 0.333333
vt 0.562500 0.416667
vt 0.562500 0.500000
vt 0.583333 0.583333
vt 0.583333 0.666667
vt 0.562500 0.666667
vt 0.583333 0.750000
vt 0.583333 0.833333
vt 0.583333 1.000000
vt 0.562500 1.000000
vt 0.562500 0.000000
vt 0.583333 0.083333
vt 0.562500 0.166667
vt 0.583333 0.250000
vt 0.562500 0.333333
vt 0.583333 0.416667
vt 0.604167 0.500000
vt 0.583333 0.500000
vt 0.604167 0.666667
vt 0.604167 0.833333
vt 0.604167 0.916667
vt 0.583333 0.916667
vt 0.583333 0.000000
vt 0.604167 0.083333
vt 0.583333 0.166667
vt 0.604167 0.250000
vt 0.583333 0.333333
vt 0.604167 0.416667
vt 0.625000 0.500000
vt 0.604167 0.583333
vt 0.625000 0.666667
vt 0.604167 0.750000
vt 0.625000 0.833333
vt 0.625000 1.000000
vt 0.604167 1.000000
vt 0.625000 0.000000
vt 0.604167 0.000000
vt 0.625000 0.083333
vt 0.604167 0.166667
vt 0.625000 0.250000
vt 0.604167 0.333333
vt 0.625000 0.416667
vt 0.645833 0.500000
vt 0.625000 0.583333
vt 0.645833 0.666667
vt 0.625000 0.750000
vt 0.645833 0.833333
vt 0.625000 0.916667
vt 0.645833 0.916667
vt 0.645833 0.000000
vt 0.645833 0.083333
vt 0.625000 0.166667
vt 0.645833 0.166667
vt 0.645833 0.333333
vt 0.625000 0.333333
vt 0.666667 0.500000
vt 0.645833 0.583333
vt 0.666667 0.666667
vt 0.645833 0.750000
vt 0.666667 0.833333
vt 0.666667 0.916667
vt 0.645833 1.000000
vt 0.666667 0.000000
vt 0.666667 0.083333
vt 0.666667 0.166667
vt 0.645833 0.250000
vt 0.666667 0.333333
vt 0.645833 0.416667
vt 0.687500 0.583333
vt 0.666667 0.583333
vt 0.687500 0.666667
vt 0.666667 0.750000
vt 0.687500 0.833333
vt 0.687500 0.916667
vt 0.687500 1.000000
vt 0.666667 1.000000
vt 0.687500 0.000000
vt 0.687500 0.166667
vt 0.666667 0.250000
vt 0.687500 0.333333
vt 0.666667 0.416667
vt 0.687500 0.416667
vt 0.708333 0.500000
vt 0.687500 0.500000
vt 0.708333 0.583333
vt 0.708333 0.666667
vt 0.687500 0.750000
vt 0.708333 0.750000
vt 0.708333 0.916667
vt 0.708333 1.000000
vt 0.708333 0.083333
vt 0.687500 0.083333
vt 0.708333 0.166667
vt 0.708333 0.250000
vt 0.687500 0.250000
vt 0.708333 0.416667
vt 0.729167 0.500000
vt 0.729167 0.666667
vt 0.729167 0.750000
vt 0.708333 0.833333
vt 0.729167 0.916667
vt 0.729167 1.000000
vt 0.708333 0.000000
vt 0.729167 0.083333
vt 0.729167 0.166667
vt 0.729167 0.250000
vt 0.708333 0.333333
vt 0.729167 0.333333
vt 0.750000 0.500000
vt 0.729167 0.583333
vt 0.750000 0.583333
vt 0.750000 0.666667
vt 0.750000 0.750000
vt 0.729167 0.833333
vt 0.750000 0.833333
vt 0.750000 0.916667
vt 0.729167 0.000000
vt 0.750000 0.083333
vt 0.750000 0.166667
vt 0.750000 0.333333
vt 0.750000 0.416667
vt 0.729167 0.416667
vt 0.770833 0.500000
vt 0.770833 0.583333
vt 0.770833 0.750000
vt 0.770833 0.833333
vt 0.770833 0.916667
vt 0.750000 1.000000
vt 0.750000 0.000000
vt 0.770833 0.083333
vt 0.770833 0.166667
vt 0.750000 0.250000
vt 0.770833 0.250000
vt 0.770833 0.333333
vt 0.770833 0.416667
vt 0.791667 0.583333
vt 0.791667 0.666667
vt 0.770833 0.666667
vt 0.791667 0.833333
vt 0.791667 0.916667
vt 0.770833 1.000000
vt 0.791667 0.000000
vt 0.770833 0.000000
vt 0.791667 0.083333
vt 0.791667 0.250000
vt 0.791667 0.416667
vt 0.791667 0.500000
vt 0.812500 0.583333
vt 0.812500 0.666667
vt 0.791667 0.750000
vt 0.812500 0.833333
vt 0.812500 0.916667
vt 0.791667 1.000000
vt 0.812500 0.000000
vt 0.812500 0.166667
vt 0.791667 0.166667
vt 0.812500 0.250000
vt 0.791667 0.333333
vt 0.812500 0.333333
vt 0.812500 0.416667
vt 0.812500 0.500000
vt 0.833333 0.583333
vt 0.833333 0.666667
vt 0.812500 0.750000
vt 0.833333 0.750000
vt 0.833333 0.833333
vt 0.833333 1.000000
vt 0.812500 1.000000
vt 0.833333 0.000000
vt 0.812500 0.083333
vt 0.833333 0.166667
vt 0.833333 0.333333
vt 0.833333 0.416667
vt 0.833333 0.500000
vt 0.854167 0.583333
vt 0.854167 0.666667
vt 0.854167 0.833333
vt 0.833333 0.916667
vt 0.854167 1.000000
vt 0.854167 0.000000
vt 0.833333 0.083333
vt 0.854167 0.083333
vt 0.854167 0.166667
vt 0.833333 0.250000
vt 0.854167 0.333333
vt 0.854167 0.416667
vt 0.854167 0.500000
vt 0.875000 0.583333
vt 0.875000 0.750000
vt 0.854167 0.750000
vt 0.875000 0.833333
vt 0.854167 0.916667
vt 0.875000 0.916667
vt 0.875000 0.000000
vt 0.875000 0.083333
vt 0.875000 0.166667
vt 0.854167 0.250000
vt 0.875000 0.250000
vt 0.875000 0.416667
vt 0.875000 0.500000
vt 0.895833 0.583333
vt 0.875000 0.666667
vt 0.895833 0.750000
vt 0.895833 0.833333
vt 0.895833 0.916667
vt 0.895833 1.000000
vt 0.875000 1.000000
vt 0.895833 0.000000
vt 0.895833 0.083333
vt 0.895833 0.166667
vt 0.895833 0.333333
vt 0.875000 0.333333
vt 0.895833 0.416667
vt 0.895833 0.500000
vt 0.916667 0.583333
vt 0.895833 0.666667
vt 0.916667 0.750000
vt 0.916667 0.916667
vt 0.916667 1.000000
vt 0.916667 0.000000
vt 0.916667 0.166667
vt 0.895833 0.250000
vt 0.916667 0.250000
vt 0.916667 0.333333
vt 0.916667 0.416667
vt 0.916667 0.500000
vt 0.937500 0.583333
vt 0.916667 0.666667
vt 0.937500 0.750000
vt 0.916667 0.833333
vt 0.937500 0.916667
vt 0.937500 0.083333
vt 0.916667 0.083333
vt 0.937500 0.166667
vt 0.937500 0.250000
vt 0.937500 0.416667
vt 0.958333 0.500000
vt 0.937500 0.500000
vt 0.958333 0.666667
vt 0.937500 0.666667
vt 0.958333 0.833333
vt 0.937500 0.833333
vt 0.958333 0.916667
vt 0.937500 1.000000
vt 0.958333 0.000000
vt 0.937500 0.000000
vt 0.958333 0.083333
vt 0.958333 0.166667
vt 0.958333 0.250000
vt 0.937500 0.333333
vt 0.958333 0.333333
vt 0.979167 0.500000
vt 0.958333 0.583333
vt 0.979167 0.583333
vt 0.979167 0.666667
vt 0.958333 0.750000
vt 0.979167 0.750000
vt 0.979167 0.833333
vt 0.979167 1.000000
vt 0.958333 1.000000
vt 0.979167 0.000000
vt 0.979167 0.083333
vt 0.979167 0.166667
vt 0.979167 0.333333
vt 0.958333 0.416667
vt 0.979167 0.416667
vt 1.000000 0.500000
vt 1.000000 0.583333
vt 1.000000 0.666667
vt 1.000000 0.833333
vt 0.979167 0.916667
vt 1.000000 1.000000
vt 1.000000 0.083333
vt 1.000000 0.250000
vt 0.979167 0.250000
vt 1.000000 0.333333
vt 1.000000 0.416667
vt 0.020833 0.500000
vt 0.000000 0.583333
vt 0.000000 0.500000
vt 0.020833 0.583333
vt 0.000000 0.666667
vt 0.020833 0.750000
vt 0.000000 0.750000
vt 0.020833 0.833333
vt 0.000000 0.833333
vt 0.000000 0.916667
vt 0.020833 0.916667
vt 0.000000 1.000000
vt 0.000000 0.000000
vt 0.020833 0.083333
vt 0.000000 0.083333
vt 0.000000 0.166667
vt 0.020833 0.250000
vt 0.000000 0.250000
vt 0.000000 0.333333
vt 0.020833 0.333333
vt 0.000000 0.416667
vt 0.041667 0.583333
vt 0.041667 0.666667
vt 0.020833 0.666667
vt 0.041667 0.750000
vt 0.041667 0.833333
vt 0.041667 0.916667
vt 0.020833 1.000000
vt 0.020833 0.000000
vt 0.041667 0.083333
vt 0.020833 0.166667
vt 0.041667 0.166667
vt 0.041667 0.250000
vt 0.041667 0.416667
vt 0.020833 0.416667
vt 0.062500 0.500000
vt 0.041667 0.500000
vt 0.062500 0.666667
vt 0.062500 0.833333
vt 0.062500 0.916667
vt 0.041667 1.000000
vt 0.041667 0.000000
vt 0.062500 0.083333
vt 0.062500 0.166667
vt 0.062500 0.333333
vt 0.041667 0.333333
vt 0.062500 0.416667
vt 0.083333 0.500000
vt 0.062500 0.583333
vt 0.083333 0.583333
vt 0.083333 0.666667
vt 0.062500 0.750000
vt 0.083333 0.750000
vt 0.083333 0.833333
vt 0.083333 0.916667
vt 0.062500 1.000000
vt 0.062500 0.000000
vt 0.083333 0.083333
vt 0.083333 0.250000
vt 0.062500 0.250000
vt 0.083333 0.333333
vt 0.083333 0.416667
vt 0.104167 0.500000
vt 0.104167 0.583333
vt 0.104167 0.750000
vt 0.104167 0.833333
vt 0.104167 0.916667
vt 0.083333 1.000000
vt 0.104167 0.000000
vt 0.083333 0.000000
vt 0.104167 0.083333
vt 0.083333 0.166667
vt 0.104167 0.250000
vt 0.104167 0.416667
vt 0.125000 0.500000
vt 0.125000 0.583333
vt 0.104167 0.666667
vt 0.125000 0.750000
vt 0.125000 0.833333
vt 0.125000 0.916667
vt 0.104167 1.000000
vt 0.125000 0.083333
vt 0.104167 0.166667
vt 0.125000 0.250000
vt 0.104167 0.333333
vt 0.125000 0.333333
vt 0.145833 0.500000
vt 0.145833 0.666667
vt 0.125000 0.666667
vt 0.145833 0.750000
vt 0.145833 0.833333
vt 0.145833 0.916667
vt 0.145833 1.000000
vt 0.125000 1.000000
vt 0.145833 0.000000
vt 0.125000 0.000000
vt 0.145833 0.166667
vt 0.125000 0.166667
vt 0.145833 0.333333
vt 0.125000 0.416667
vt 0.166667 0.500000
vt 0.145833 0.583333
vt 0.166667 0.583333
vt 0.166667 0.666667
vt 0.166667 0.833333
vt 0.166667 0.916667
vt 0.166667 0.000000
vt 0.145833 0.083333
vt 0.166667 0.083333
vt 0.166667 0.166667
vt 0.145833 0.250000
vt 0.166667 0.333333
vt 0.145833 0.416667
vt 0.166667 0.416667
vt 0.187500 0.583333
vt 0.187500 0.666667
vt 0.166667 0.750000
vt 0.187500 0.833333
vt 0.187500 0.916667
vt 0.166667 1.000000
vt 0.187500 0.083333
vt 0.187500 0.166667
vt 0.166667 0.250000
vt 0.187500 0.333333
vt 0.187500 0.416667
vt 0.187500 0.500000
vt 0.208333 0.583333
vt 0.208333 0.666667
vt 0.187500 0.750000
vt 0.208333 0.833333
vt 0.208333 1.000000
vt 0.187500 1.000000
vt 0.208333 0.000000
vt 0.187500 0.000000
vt 0.208333 0.083333
vt 0.208333 0.166667
vt 0.187500 0.250000
vt 0.208333 0.333333
vt 0.208333 0.416667
vt 0.229167 0.500000
vt 0.208333 0.500000
vt 0.229167 0.583333
vt 0.229167 0.666667
vt 0.208333 0.750000
vt 0.229167 0.833333
vt 0.208333 0.916667
vt 0.229167 1.000000
vt 0.229167 0.000000
vt 0.229167 0.166667
vt 0.208333 0.250000
vt 0.229167 0.250000
vt 0.229167 0.333333
vt 0.229167 0.416667
vt 0.250000 0.500000
vt 0.250000 0.583333
vt 0.250000 0.750000
vt 0.229167 0.750000
vt 0.250000 0.833333
vt 0.250000 0.916667
vt 0.229167 0.916667
vt 0.250000 1.000000
vt 0.250000 0.000000
vt 0.229167 0.083333
vt 0.250000 0.166667
vt 0.250000 0.250000
vt 0.250000 0.416667
vt 0.270833 0.583333
vt 0.270833 0.666667
vt 0.250000 0.666667
vt 0.270833 0.750000
vt 0.270833 0.833333
vt 0.270833 0.916667
vt 0.270833 0.000000
vt 0.250000 0.083333
vt 0.270833 0.166667
vt 0.270833 0.250000
vt 0.250000 0.333333
vt 0.270833 0.333333
vt 0.270833 0.416667
vt 0.291667 0.500000
vt 0.270833 0.500000
vt 0.291667 0.666667
vt 0.291667 0.750000
vt 0.291667 0.833333
vt 0.291667 0.916667
vt 0.270833 1.000000
vt 0.291667 0.083333
vt 0.270833 0.083333
vt 0.291667 0.166667
vt 0.291667 0.333333
vt 0.291667 0.416667
vt 0.312500 0.500000
vt 0.291667 0.583333
vt 0.312500 0.666667
vt 0.312500 0.833333
vt 0.312500 1.000000
vt 0.291667 1.000000
vt 0.291667 0.000000
vt 0.312500 0.083333
vt 0.312500 0.166667
vt 0.291667 0.250000
vt 0.312500 0.250000
vt 0.312500 0.333333
vt 0.333333 0.500000
vt 0.312500 0.583333
vt 0.333333 0.666667
vt 0.312500 0.750000
vt 0.333333 0.750000
vt 0.333333 0.833333
vt 0.312500 0.916667
vt 0.333333 0.916667
vt 0.333333 0.000000
vt 0.312500 0.000000
vt 0.333333 0.083333
vt 0.333333 0.166667
vt 0.333333 0.250000
vt 0.333333 0.333333
vt 0.312500 0.416667
vt 0.354167 0.583333
vt 0.333333 0.583333
vt 0.354167 0.666667
vt 0.354167 0.750000
vt 0.354167 0.833333
vt 0.354167 1.000000
vt 0.333333 1.000000
vt 0.354167 0.083333
vt 0.354167 0.250000
vt 0.354167 0.416667
vt 0.333333 0.416667
vt 0.375000 0.500000
vt 0.354167 0.500000
vt 0.375000 0.666667
vt 0.375000 0.833333
vt 0.375000 0.916667
vt 0.354167 0.916667
vt 0.375000 1.000000
vt 0.375000 0.000000
vt 0.354167 0.000000
vt 0.375000 0.083333
vt 0.354167 0.166667
vt 0.375000 0.250000
vt 0.354167 0.333333
vt 0.375000 0.416667
vt 0.395833 0.583333
vt 0.375000 0.583333
vt 0.395833 0.666667
vt 0.375000 0.750000
vt 0.395833 0.750000
vt 0.395833 0.916667
vt 0.395833 1.000000
vt 0.395833 0.000000
vt 0.395833 0.166667
vt 0.375000 0.166667
vt 0.395833 0.250000
vt 0.375000 0.333333
vt 0.395833 0.333333
vt 0.395833 0.416667
vt 0.416667 0.500000
vt 0.395833 0.500000
vt 0.416667 0.583333
vt 0.416667 0.750000
vt 0.416667 0.833333
vt 0.395833 0.833333
vt 0.416667 0.916667
vt 0.416667 0.000000
vt 0.395833 0.083333
vt 0.416667 0.166667
vt 0.416667 0.250000
vt 0.416667 0.416667
vt 0.437500 0.500000
vt 0.437500 0.583333
vt 0.416667 0.666667
vt 0.437500 0.750000
vt 0.437500 0.833333
vt 0.437500 1.000000
vt 0.416667 1.000000
vt 0.437500 0.083333
vt 0.416667 0.083333
vt 0.437500 0.166667
vt 0.437500 0.250000
vt 0.416667 0.333333
vt 0.437500 0.333333
vt 0.458333 0.583333
vt 0.458333 0.666667
vt 0.437500 0.666667
vt 0.458333 0.833333
vt 0.437500 0.916667
vt 0.458333 1.000000
vt 0.458333 0.000000
vt 0.437500 0.000000
vt 0.458333 0.166667
vt 0.458333 0.250000
vt 0.458333 0.333333
vt 0.437500 0.416667
vt 0.458333 0.416667
vt 0.458333 0.500000
vt 0.479167 0.583333
vt 0.479167 0.666667
vt 0.458333 0.750000
vt 0.479167 0.750000
vt 0.479167 0.833333
vt 0.458333 0.916667
vt 0.479167 1.000000
vt 0.479167 0.000000
vt 0.458333 0.083333
vt 0.479167 0.083333
vt 0.479167 0.166667
vt 0.479167 0.333333
vt 0.479167 0.416667
vt 0.479167 0.500000
vt 0.479167 0.916667
vt 0.479167 0.250000
vt 1.000000 0.750000
vt 1.000000 0.916667
vt 1.000000 0.000000
vt 1.000000 0.166667
s 0
f 13/1/1 2/2/1 1/3/1
f 14/4/2 3/5/2 2/2/2
f 15/6/3 4/7/3 3/5/3
f 16/8/4 5/9/4 4/7/4
f 5/9/5 18/10/5 6/11/5
f 6/11/6 19/12/6 7/13/6
f 19/14/7 8/15/7 7/16/7
f 20/17/8 9/18/8 8/15/8
f 9/18/9 22/19/9 10/20/9
f 22/19/10 11/21/10 10/20/10
f 23/22/11 12/23/11 11/21/11
f 24/24/12 1/3/12 12/23/12
f 13/1/13 26/25/13 14/4/13
f 26/25/14 15/6/14 14/4/14
f 27/26/15 16/8/15 15/6/15
f 28/27/16 17/28/16 16/8/16
f 29/29/17 18/10/17 17/28/17
f 30/30/18 19/12/18 18/10/18
f 19/14/19 32/31/19 20/17/19
f 20/17/20 33/32/20 21/33/20
f 21/33/21 34/34/21 22/19/21
f 34/34/22 23/22/22 22/19/22
f 23/22/23 36/35/23 24/24/23
f 36/35/24 13/1/24 24/24/24
f 25/36/25 38/37/25 26/25/25
f 38/37/26 27/26/26 26/25/26
f 27/26/27 40/38/27 28/27/27
f 28/27/28 41/39/28 29/29/28
f 41/39/29 30/30/29 29/29/29
f 42/40/30 31/41/30 30/30/30
f 31/42/31 44/43/31 32/31/31
f 44/43/32 33/32/32 32/31/32
f 33/32/33 46/44/33 34/34/33
f 46/44/34 35/45/34 34/34/34
f 35/45/35 48/46/35 36/35/35
f 48/46/36 25/36/36 36/35/36
f 37/47/37 50/48/37 38/37/37
f 38/37/38 51/49/38 39/50/38
f 51/49/39 40/38/39 39/50/39
f 52/51/40 41/39/40 40/38/40
f 53/52/41 42/40/41 41/39/41
f 42/40/42 55/53/42 43/54/42
f 43/55/43 56/56/43 44/43/43
f 56/56/44 45/57/44 44/43/44
f 45/57/45 58/58/45 46/44/45
f 58/58/46 47/59/46 46/44/46
f 47/59/47 60/60/47 48/46/47
f 60/60/48 37/47/48 48/46/48
f 61/61/49 50/48/49 49/62/49
f 50/48/50 63/63/50 51/49/50
f 63/63/51 52/51/51 51/49/51
f 52/51/52 65/64/52 53/52/52
f 53/52/53 66/65/53 54/66/53
f 66/65/54 55/53/54 54/66/54
f 55/67/55 68/68/55 56/56/55
f 68/68/56 57/69/56 56/56/56
f 57/69/57 70/70/57 58/58/57
f 70/70/58 59/71/58 58/58/58
f 59/71/59 72/72/59 60/60/59
f 60/60/60 61/61/60 49/62/60
f 73/73/61 62/74/61 61/61/61
f 62/74/62 75/75/62 63/63/62
f 75/75/63 64/76/63 63/63/63
f 64/76/64 77/77/64 65/64/64
f 77/77/65 66/65/65 65/64/65
f 66/65/66 79/78/66 67/79/66
f 79/80/67 68/68/67 67/81/67
f 80/82/68 69/83/68 68/68/68
f 69/83/69 82/84/69 70/70/69
f 82/84/70 71/85/70 70/70/70
f 71/85/71 84/86/71 72/72/71
f 72/72/72 73/73/72 61/61/72
f 85/87/73 74/88/73 73/73/73
f 74/88/74 87/89/74 75/75/74
f 87/89/75 76/90/75 75/75/75
f 76/90/76 89/91/76 77/77/76
f 89/91/77 78/92/77 77/77/77
f 90/93/78 79/78/78 78/92/78
f 91/94/79 80/82/79 79/80/79
f 92/95/80 81/96/80 80/82/80
f 93/97/81 82/84/81 81/96/81
f 82/84/82 95/98/82 83/99/82
f 95/98/83 84/86/83 83/99/83
f 84/86/84 85/87/84 73/73/84
f 97/100/85 86/101/85 85/87/85
f 86/101/86 99/102/86 87/89/86
f 99/102/87 88/103/87 87/89/87
f 88/103/88 101/104/88 89/91/88
f 89/91/89 102/105/89 90/93/89
f 102/105/90 91/106/90 90/93/90
f 103/107/91 92/95/91 91/94/91
f 104/108/92 93/97/92 92/95/92
f 105/109/93 94/110/93 93/97/93
f 94/110/94 107/111/94 95/98/94
f 107/111/95 96/112/95 95/98/95
f 96/112/96 97/100/96 85/87/96
f 97/100/97 110/113/97 98/114/97
f 110/113/98 99/102/98 98/114/98
f 111/115/99 100/116/99 99/102/99
f 100/116/100 113/117/100 101/104/100
f 101/104/101 114/118/101 102/105/101
f 102/105/102 115/119/102 103/120/102
f 115/121/103 104/108/103 103/107/103
f 104/108/104 117/122/104 105/109/104
f 117/122/105 106/123/105 105/109/105
f 106/123/106 119/124/106 107/111/106
f 119/124/107 108/125/107 107/111/107
f 120/126/108 97/100/108 108/125/108
f 121/127/109 110/113/109 109/128/109
f 122/129/110 111/115/110 110/113/110
f 123/130/111 112/131/111 111/115/111
f 124/132/112 113/117/112 112/131/112
f 113/117/113 126/133/113 114/118/113
f 114/118/114 127/134/114 115/119/114
f 115/121/115 128/135/115 116/136/115
f 116/136/116 129/137/116 117/122/116
f 117/122/117 130/138/117 118/139/117
f 130/138/118 119/124/118 118/139/118
f 119/124/119 132/140/119 120/126/119
f 132/140/120 109/128/120 120/126/120
f 133/141/121 122/129/121 121/127/121
f 122/129/122 135/142/122 123/130/122
f 123/130/123 136/143/123 124/132/123
f 136/143/124 125/144/124 124/132/124
f 125/144/125 138/145/125 126/133/125
f 126/133/126 139/146/126 127/134/126
f 127/147/127 140/148/127 128/135/127
f 140/148/128 129/137/128 128/135/128
f 141/149/129 130/138/129 129/137/129
f 142/150/130 131/151/130 130/138/130
f 143/152/131 132/140/131 131/151/131
f 132/140/132 133/141/132 121/127/132
f 145/153/133 134/154/133 133/141/133
f 146/155/134 135/142/134 134/154/134
f 147/156/135 136/143/135 135/142/135
f 148/157/136 137/158/136 136/143/136
f 149/159/137 138/145/137 137/158/137
f 150/160/138 139/146/138 138/145/138
f 139/161/139 152/162/139 140/148/139
f 152/162/140 141/149/140 140/148/140
f 153/163/141 142/150/141 141/149/141
f 142/150/142 155/164/142 143/152/142
f 143/152/143 156/165/143 144/166/143
f 156/165/144 133/141/144 144/166/144
f 157/167/145 146/155/145 145/153/145
f 158/168/146 147/156/146 146/155/146
f 147/156/147 160/169/147 148/157/147
f 160/169/148 149/159/148 148/157/148
f 161/170/149 150/160/149 149/159/149
f 162/171/150 151/172/150 150/160/150
f 151/173/151 164/174/151 152/162/151
f 164/174/152 153/163/152 152/162/152
f 165/175/153 154/176/153 153/163/153
f 166/177/154 155/164/154 154/176/154
f 167/178/155 156/165/155 155/164/155
f 168/179/156 145/153/156 156/165/156
f 157/167/157 170/180/157 158/168/157
f 158/168/158 171/181/158 159/182/158
f 171/181/159 160/169/159 159/182/159
f 160/169/160 173/183/160 161/170/160
f 161/170/161 174/184/161 162/171/161
f 174/184/162 163/185/162 162/171/162
f 175/186/163 164/174/163 163/187/163
f 176/188/164 165/175/164 164/174/164
f 165/175/165 178/189/165 166/177/165
f 178/189/166 167/178/166 166/177/166
f 167/178/167 180/190/167 168/179/167
f 180/190/168 157/167/168 168/179/168
f 169/191/169 182/192/169 170/180/169
f 182/192/170 171/181/170 170/180/170
f 183/193/171 172/194/171 171/181/171
f 172/194/172 185/195/172 173/183/172
f 185/195/173 174/184/173 173/183/173
f 186/196/174 175/197/174 174/184/174
f 187/198/175 176/188/175 175/186/175
f 176/188/176 189/199/176 177/200/176
f 177/200/177 190/201/177 178/189/177
f 190/201/178 179/202/178 178/189/178
f 191/203/179 180/190/179 179/202/179
f 192/204/180 169/191/180 180/190/180
f 181/205/181 194/206/181 182/192/181
f 194/206/182 183/193/182 182/192/182
f 195/207/183 184/208/183 183/193/183
f 196/209/184 185/195/184 184/208/184
f 197/210/185 186/196/185 185/195/185
f 186/196/186 199/211/186 187/212/186
f 199/213/187 188/214/187 187/198/187
f 188/214/188 201/215/188 189/199/188
f 201/215/189 190/201/189 189/199/189
f 190/201/190 203/216/190 191/203/190
f 191/203/191 204/217/191 192/204/191
f 204/217/192 181/205/192 192/204/192
f 193/218/193 206/219/193 194/206/193
f 206/219/194 195/207/194 194/206/194
f 207/220/195 196/209/195 195/207/195
f 196/209/196 209/221/196 197/210/196
f 209/221/197 198/222/197 197/210/197
f 198/222/198 211/223/198 199/211/198
f 211/224/199 200/225/199 199/213/199
f 212/226/200 201/215/200 200/225/200
f 213/227/201 202/228/201 201/215/201
f 202/228/202 215/229/202 203/216/202
f 215/229/203 204/217/203 203/216/203
f 216/230/204 193/218/204 204/217/204
f 205/231/205 218/232/205 206/219/205
f 218/232/206 207/220/206 206/219/206
f 207/220/207 220/233/207 208/234/207
f 208/234/208 221/235/208 209/221/208
f 221/235/209 210/236/209 209/221/209
f 222/237/210 211/223/210 210/236/210
f 223/238/211 212/226/211 211/224/211
f 224/239/212 213/227/212 212/226/212
f 225/240/213 214/241/213 213/227/213
f 226/242/214 215/229/214 214/241/214
f 215/229/215 228/243/215 216/230/215
f 228/243/216 205/231/216 216/230/216
f 217/244/217 230/245/217 218/232/217
f 230/245/218 219/246/218 218/232/218
f 219/246/219 232/247/219 220/233/219
f 220/233/220 233/248/220 221/235/220
f 221/235/221 234/249/221 222/237/221
f 222/237/222 235/250/222 223/251/222
f 235/252/223 224/239/223 223/238/223
f 236/253/224 225/240/224 224/239/224
f 237/254/225 226/242/225 225/240/225
f 226/242/226 239/255/226 227/256/226
f 227/256/227 240/257/227 228/243/227
f 240/257/228 217/244/228 228/243/228
f 229/258/229 242/259/229 230/245/229
f 242/259/230 231/260/230 230/245/230
f 231/260/231 244/261/231 232/247/231
f 244/261/232 233/248/232 232/247/232
f 233/248/233 246/262/233 234/249/233
f 234/249/234 247/263/234 235/250/234
f 247/264/235 236/253/235 235/252/235
f 236/253/236 249/265/236 237/254/236
f 249/265/237 238/266/237 237/254/237
f 250/267/238 239/255/238 238/266/238
f 251/268/239 240/257/239 239/255/239
f 252/269/240 229/258/240 240/257/240
f 241/270/241 254/271/241 242/259/241
f 254/271/242 243/272/242 242/259/242
f 243/272/243 256/273/243 244/261/243
f 256/273/244 245/274/244 244/261/244
f 245/274/245 258/275/245 246/262/245
f 258/275/246 247/263/246 246/262/246
f 247/264/247 260/276/247 248/277/247
f 248/277/248 261/278/248 249/265/248
f 261/278/249 250/267/249 249/265/249
f 262/279/250 251/268/250 250/267/250
f 251/268/251 264/280/251 252/269/251
f 264/280/252 241/270/252 252/269/252
f 265/281/253 254/271/253 253/282/253
f 254/271/254 267/283/254 255/284/254
f 267/283/255 256/273/255 255/284/255
f 256/273/256 269/285/256 257/286/256
f 257/286/257 270/287/257 258/275/257
f 270/287/258 259/288/258 258/275/258
f 271/289/259 260/276/259 259/290/259
f 272/291/260 261/278/260 260/276/260
f 273/292/261 262/279/261 261/278/261
f 274/293/262 263/294/262 262/279/262
f 275/295/263 264/280/263 263/294/263
f 264/280/264 265/281/264 253/282/264
f 277/296/265 266/297/265 265/281/265
f 278/298/266 267/283/266 266/297/266
f 279/299/267 268/300/267 267/283/267
f 280/301/268 269/285/268 268/300/268
f 281/302/269 270/287/269 269/285/269
f 270/287/270 283/303/270 271/304/270
f 283/305/271 272/291/271 271/289/271
f 284/306/272 273/292/272 272/291/272
f 285/307/273 274/293/273 273/292/273
f 274/293/274 287/308/274 275/295/274
f 287/308/275 276/309/275 275/295/275
f 288/310/276 265/281/276 276/309/276
f 289/311/277 278/298/277 277/296/277
f 290/312/278 279/299/278 278/298/278
f 291/313/279 280/301/279 279/299/279
f 280/301/280 293/314/280 281/302/280
f 293/314/281 282/315/281 281/302/281
f 282/315/282 295/316/282 283/303/282
f 283/305/283 296/317/283 284/306/283
f 296/317/284 285/307/284 284/306/284
f 285/307/285 298/318/285 286/319/285
f 286/319/286 299/320/286 287/308/286
f 287/308/287 300/321/287 288/310/287
f 288/310/288 289/311/288 277/296/288
f 301/322/6 290/323/6 289/324/6
f 302/325/5 291/326/5 290/323/5
f 291/326/289 304/327/289 292/328/289
f 292/328/290 305/329/290 293/330/290
f 305/329/2 294/331/2 293/330/2
f 306/332/1 295/333/1 294/331/1
f 295/334/12 308/335/12 296/336/12
f 308/335/11 297/337/11 296/336/11
f 297/337/291 310/338/291 298/339/291
f 310/338/292 299/340/292 298/339/292
f 311/341/8 300/342/8 299/340/8
f 300/342/7 301/322/7 289/324/7
f 301/322/18 314/343/18 302/325/18
f 302/325/17 315/344/17 303/345/17
f 303/345/293 316/346/293 304/327/293
f 304/327/294 317/347/294 305/329/294
f 317/347/14 306/332/14 305/329/14
f 318/348/13 307/349/13 306/332/13
f 307/350/24 320/351/24 308/335/24
f 320/351/23 309/352/23 308/335/23
f 321/353/295 310/338/295 309/352/295
f 322/354/296 311/341/296 310/338/296
f 311/341/20 324/355/20 312/356/20
f 324/355/19 301/322/19 312/356/19
f 325/357/30 314/343/30 313/358/30
f 314/343/297 327/359/297 315/344/297
f 327/359/28 316/346/28 315/344/28
f 316/346/27 329/360/27 317/347/27
f 329/360/298 318/348/298 317/347/298
f 330/361/25 319/362/25 318/348/25
f 319/363/36 332/364/36 320/351/36
f 332/364/299 321/353/299 320/351/299
f 333/365/34 322/354/34 321/353/34
f 322/354/33 335/366/33 323/367/33
f 323/367/300 336/368/300 324/355/300
f 336/368/31 313/358/31 324/355/31
f 337/369/42 326/370/42 325/357/42
f 338/371/301 327/359/301 326/370/301
f 339/372/302 328/373/302 327/359/302
f 340/374/303 329/360/303 328/373/303
f 341/375/304 330/361/304 329/360/304
f 342/376/37 331/377/37 330/361/37
f 331/378/48 344/379/48 332/364/48
f 344/379/305 333/365/305 332/364/305
f 333/365/306 346/380/306 334/381/306
f 334/381/307 347/382/307 335/366/307
f 335/366/308 348/383/308 336/368/308
f 348/383/43 325/357/43 336/368/43
f 349/384/54 338/371/54 337/369/54
f 350/385/309 339/372/309 338/371/309
f 339/372/52 352/386/52 340/374/52
f 352/386/51 341/375/51 340/374/51
f 353/387/310 342/376/310 341/375/310
f 354/388/49 343/389/49 342/376/49
f 355/390/60 344/379/60 343/391/60
f 356/392/311 345/393/311 344/379/311
f 345/393/58 358/394/58 346/380/58
f 358/394/57 347/382/57 346/380/57
f 347/382/312 360/395/312 348/383/312
f 360/395/55 337/369/55 348/383/55
f 361/396/313 350/385/313 349/384/313
f 362/397/314 351/398/314 350/385/314
f 351/398/64 364/399/64 352/386/64
f 364/399/63 353/387/63 352/386/63
f 365/400/315 354/388/315 353/387/315
f 366/401/316 355/402/316 354/388/316
f 355/390/317 368/403/317 356/392/317
f 368/403/318 357/404/318 356/392/318
f 357/404/70 370/405/70 358/394/70
f 370/405/69 359/406/69 358/394/69
f 371/407/319 360/395/319 359/406/319
f 360/395/67 361/396/67 349/384/67
f 373/408/320 362/397/320 361/396/320
f 362/397/321 375/409/321 363/410/321
f 363/410/322 376/411/322 364/399/322
f 364/399/323 377/412/323 365/400/323
f 365/400/324 378/413/324 366/401/324
f 366/401/325 379/414/325 367/415/325
f 379/416/326 368/403/326 367/417/326
f 368/403/327 381/418/327 369/419/327
f 381/418/328 370/405/328 369/419/328
f 370/405/329 383/420/329 371/407/329
f 383/420/330 372/421/330 371/407/330
f 372/421/331 373/408/331 361/396/331
f 385/422/90 374/423/90 373/408/90
f 386/424/89 375/409/89 374/423/89
f 387/425/332 376/411/332 375/409/332
f 376/411/333 389/426/333 377/412/333
f 389/426/86 378/413/86 377/412/86
f 390/427/85 379/414/85 378/413/85
f 391/428/96 380/429/96 379/416/96
f 392/430/95 381/418/95 380/429/95
f 393/431/334 382/432/334 381/418/334
f 382/432/335 395/433/335 383/420/335
f 395/433/92 384/434/92 383/420/92
f 396/435/91 373/408/91 384/434/91
f 385/422/102 398/436/102 386/424/102
f 386/424/101 399/437/101 387/425/101
f 399/437/100 388/438/100 387/425/100
f 388/438/99 401/439/99 389/426/99
f 389/426/98 402/440/98 390/427/98
f 402/440/97 391/441/97 390/427/97
f 391/428/108 404/442/108 392/430/108
f 404/442/107 393/431/107 392/430/107
f 405/443/106 394/444/106 393/431/106
f 394/444/105 407/445/105 395/433/105
f 395/433/104 408/446/104 396/435/104
f 408/446/103 385/422/103 396/435/103
f 397/447/114 410/448/114 398/436/114
f 410/448/113 399/437/113 398/436/113
f 411/449/336 400/450/336 399/437/336
f 400/450/337 413/451/337 401/439/337
f 413/451/110 402/440/110 401/439/110
f 402/440/109 415/452/109 403/453/109
f 415/454/120 404/442/120 403/455/120
f 416/456/119 405/443/119 404/442/119
f 417/457/338 406/458/338 405/443/338
f 406/458/339 419/459/339 407/445/339
f 419/459/116 408/446/116 407/445/116
f 420/460/115 397/447/115 408/446/115
f 421/461/340 410/448/340 409/462/340
f 422/463/125 411/449/125 410/448/125
f 423/464/124 412/465/124 411/449/124
f 412/465/123 425/466/123 413/451/123
f 425/466/122 414/467/122 413/451/122
f 414/467/341 427/468/341 415/452/341
f 427/469/132 416/456/132 415/454/132
f 416/456/131 429/470/131 417/457/131
f 429/470/130 418/471/130 417/457/130
f 430/472/129 419/459/129 418/471/129
f 431/473/128 420/460/128 419/459/128
f 432/474/342 409/462/342 420/460/342
f 433/475/138 422/463/138 421/461/138
f 434/476/137 423/464/137 422/463/137
f 423/464/136 436/477/136 424/478/136
f 424/478/135 437/479/135 425/466/135
f 425/466/134 438/480/134 426/481/134
f 426/481/133 439/482/133 427/468/133
f 439/483/144 428/484/144 427/469/144
f 428/484/143 441/485/143 429/470/143
f 441/485/142 430/472/142 429/470/142
f 442/486/141 431/473/141 430/472/141
f 431/473/140 444/487/140 432/474/140
f 432/474/139 433/475/139 421/461/139
f 433/475/150 446/488/150 434/476/150
f 434/476/149 447/489/149 435/490/149
f 435/490/148 448/491/148 436/477/148
f 448/491/147 437/479/147 436/477/147
f 449/492/146 438/480/146 437/479/146
f 450/493/145 439/482/145 438/480/145
f 451/494/156 440/495/156 439/483/156
f 440/495/155 453/496/155 441/485/155
f 453/496/154 442/486/154 441/485/154
f 454/497/153 443/498/153 442/486/153
f 455/499/152 444/487/152 443/498/152
f 456/500/151 433/475/151 444/487/151
f 457/501/162 446/488/162 445/502/162
f 446/488/161 459/503/161 447/489/161
f 459/503/160 448/491/160 447/489/160
f 460/504/159 449/492/159 448/491/159
f 461/505/158 450/493/158 449/492/158
f 462/506/343 451/507/343 450/493/343
f 451/494/344 464/508/344 452/509/344
f 464/508/167 453/496/167 452/509/167
f 465/510/166 454/497/166 453/496/166
f 454/497/165 467/511/165 455/499/165
f 467/511/164 456/500/164 455/499/164
f 468/512/163 445/502/163 456/500/163
f 469/513/174 458/514/174 457/501/174
f 458/514/173 471/515/173 459/503/173
f 471/515/345 460/504/345 459/503/345
f 460/504/346 473/516/346 461/505/346
f 473/516/170 462/506/170 461/505/170
f 462/506/169 475/517/169 463/518/169
f 463/519/180 476/520/180 464/508/180
f 464/508/179 477/521/179 465/510/179
f 477/521/347 466/522/347 465/510/347
f 478/523/348 467/511/348 466/522/348
f 479/524/176 468/512/176 467/511/176
f 468/512/175 469/513/175 457/501/175
f 481/525/186 470/526/186 469/513/186
f 470/526/185 483/527/185 471/515/185
f 483/527/184 472/528/184 471/515/184
f 484/529/183 473/516/183 472/528/183
f 485/530/182 474/531/182 473/516/182
f 486/532/181 475/517/181 474/531/181
f 487/533/192 476/520/192 475/534/192
f 488/535/191 477/521/191 476/520/191
f 489/536/190 478/523/190 477/521/190
f 490/537/189 479/524/189 478/523/189
f 491/538/188 480/539/188 479/524/188
f 480/539/187 481/525/187 469/513/187
f 481/525/198 494/540/198 482/541/198
f 482/541/197 495/542/197 483/527/197
f 495/542/349 484/529/349 483/527/349
f 496/543/350 485/530/350 484/529/350
f 497/544/194 486/532/194 485/530/194
f 486/532/193 499/545/193 487/546/193
f 487/533/204 500/547/204 488/535/204
f 500/547/203 489/536/203 488/535/203
f 489/536/351 502/548/351 490/537/351
f 502/548/352 491/538/352 490/537/352
f 491/538/200 504/549/200 492/550/200
f 504/549/199 481/525/199 492/550/199
f 505/551/210 494/540/210 493/552/210
f 494/540/353 507/553/353 495/542/353
f 507/553/354 496/543/354 495/542/354
f 496/543/355 509/554/355 497/544/355
f 497/544/356 510/555/356 498/556/356
f 498/556/357 511/557/357 499/545/357
f 511/558/358 500/547/358 499/559/358
f 512/560/359 501/561/359 500/547/359
f 501/561/360 514/562/360 502/548/360
f 514/562/361 503/563/361 502/548/361
f 503/563/362 516/564/362 504/549/362
f 516/564/363 493/552/363 504/549/363
f 505/551/364 518/565/364 506/566/364
f 518/565/365 507/553/365 506/566/365
f 519/567/220 508/568/220 507/553/220
f 520/569/219 509/554/219 508/568/219
f 509/554/366 522/570/366 510/555/366
f 510/555/217 523/571/217 511/557/217
f 523/572/367 512/560/367 511/558/367
f 512/560/368 525/573/368 513/574/368
f 525/573/226 514/562/226 513/574/226
f 526/575/225 515/576/225 514/562/225
f 527/577/369 516/564/369 515/576/369
f 528/578/370 505/551/370 516/564/370
f 529/579/234 518/565/234 517/580/234
f 530/581/371 519/567/371 518/565/371
f 519/567/232 532/582/232 520/569/232
f 520/569/231 533/583/231 521/584/231
f 533/583/372 522/570/372 521/584/372
f 534/585/229 523/571/229 522/570/229
f 535/586/240 524/587/240 523/572/240
f 524/587/373 537/588/373 525/573/373
f 537/588/238 526/575/238 525/573/238
f 538/589/237 527/577/237 526/575/237
f 527/577/374 540/590/374 528/578/374
f 540/590/235 517/580/235 528/578/235
f 541/591/246 530/581/246 529/579/246
f 542/592/375 531/593/375 530/581/375
f 531/593/376 544/594/376 532/582/376
f 532/582/377 545/595/377 533/583/377
f 545/595/378 534/585/378 533/583/378
f 534/585/241 547/596/241 535/597/241
f 535/586/252 548/598/252 536/599/252
f 548/598/379 537/588/379 536/599/379
f 549/600/380 538/589/380 537/588/380
f 550/601/381 539/602/381 538/589/381
f 551/603/382 540/590/382 539/602/382
f 540/590/247 541/591/247 529/579/247
f 541/591/258 554/604/258 542/592/258
f 542/592/383 555/605/383 543/606/383
f 555/605/256 544/594/256 543/606/256
f 544/594/255 557/607/255 545/595/255
f 557/607/384 546/608/384 545/595/384
f 546/608/253 559/609/253 547/596/253
f 559/610/264 548/598/264 547/611/264
f 548/598/385 561/612/385 549/600/385
f 561/612/262 550/601/262 549/600/262
f 562/613/261 551/603/261 550/601/261
f 563/614/386 552/615/386 551/603/386
f 564/616/259 541/591/259 552/615/259
f 553/617/270 566/618/270 554/604/270
f 554/604/269 567/619/269 555/605/269
f 567/619/387 556/620/387 555/605/387
f 568/621/388 557/607/388 556/620/388
f 569/622/266 558/623/266 557/607/266
f 558/623/265 571/624/265 559/609/265
f 571/625/276 560/626/276 559/610/276
f 572/627/275 561/612/275 560/626/275
f 573/628/389 562/613/389 561/612/389
f 562/613/390 575/629/390 563/614/390
f 575/629/272 564/616/272 563/614/272
f 576/630/271 553/617/271 564/616/271
f 1/3/282 566/618/282 565/631/282
f 566/618/281 3/5/281 567/619/281
f 3/5/391 568/621/391 567/619/391
f 4/7/392 569/622/392 568/621/392
f 569/622/278 6/11/278 570/632/278
f 6/11/277 571/624/277 570/632/277
f 7/16/288 572/627/288 571/625/288
f 8/15/287 573/628/287 572/627/287
f 573/628/393 10/20/393 574/633/393
f 574/633/394 11/21/394 575/629/394
f 11/21/284 576/630/284 575/629/284
f 576/630/283 1/3/283 565/631/283
f 13/1/1 14/4/1 2/2/1
f 14/4/2 15/6/2 3/5/2
f 15/6/3 16/8/3 4/7/3
f 16/8/4 17/28/4 5/9/4
f 5/9/5 17/28/5 18/10/5
f 6/11/6 18/10/6 19/12/6
f 19/14/7 20/17/7 8/15/7
f 20/17/8 21/33/8 9/18/8
f 9/18/9 21/33/9 22/19/9
f 22/19/10 23/22/10 11/21/10
f 23/22/11 24/24/11 12/23/11
f 24/24/12 13/1/12 1/3/12
f 13/1/13 25/36/13 26/25/13
f 26/25/14 27/26/14 15/6/14
f 27/26/15 28/27/15 16/8/15
f 28/27/16 29/29/16 17/28/16
f 29/29/17 30/30/17 18/10/17
f 30/30/18 31/41/18 19/12/18
f 19/14/19 31/42/19 32/31/19
f 20/17/20 32/31/20 33/32/20
f 21/33/21 33/32/21 34/34/21
f 34/34/22 35/45/22 23/22/22
f 23/22/23 35/45/23 36/35/23
f 36/35/24 25/36/24 13/1/24
f 25/36/25 37/47/25 38/37/25
f 38/37/26 39/50/26 27/26/26
f 27/26/27 39/50/27 40/38/27
f 28/27/28 40/38/28 41/39/28
f 41/39/29 42/40/29 30/30/29
f 42/40/30 43/54/30 31/41/30
f 31/42/31 43/55/31 44/43/31
f 44/43/32 45/57/32 33/32/32
f 33/32/33 45/57/33 46/44/33
f 46/44/34 47/59/34 35/45/34
f 35/45/35 47/59/35 48/46/35
f 48/46/36 37/47/36 25/36/36
f 37/47/37 49/62/37 50/48/37
f 38/37/38 50/48/38 51/49/38
f 51/49/39 52/51/39 40/38/39
f 52/51/40 53/52/40 41/39/40
f 53/52/41 54/66/41 42/40/41
f 42/40/42 54/66/42 55/53/42
f 43/55/43 55/67/43 56/56/43
f 56/56/44 57/69/44 45/57/44
f 45/57/45 57/69/45 58/58/45
f 58/58/46 59/71/46 47/59/46
f 47/59/47 59/71/47 60/60/47
f 60/60/48 49/62/48 37/47/48
f 61/61/49 62/74/49 50/48/49
f 50/48/50 62/74/50 63/63/50
f 63/63/51 64/76/51 52/51/51
f 52/51/52 64/76/52 65/64/52
f 53/52/53 65/64/53 66/65/53
f 66/65/54 67/79/54 55/53/54
f 55/67/55 67/81/55 68/68/55
f 68/68/56 69/83/56 57/69/56
f 57/69/57 69/83/57 70/70/57
f 70/70/58 71/85/58 59/71/58
f 59/71/59 71/85/59 72/72/59
f 60/60/60 72/72/60 61/61/60
f 73/73/61 74/88/61 62/74/61
f 62/74/62 74/88/62 75/75/62
f 75/75/63 76/90/63 64/76/63
f 64/76/64 76/90/64 77/77/64
f 77/77/65 78/92/65 66/65/65
f 66/65/66 78/92/66 79/78/66
f 79/80/67 80/82/67 68/68/67
f 80/82/68 81/96/68 69/83/68
f 69/83/69 81/96/69 82/84/69
f 82/84/70 83/99/70 71/85/70
f 71/85/71 83/99/71 84/86/71
f 72/72/72 84/86/72 73/73/72
f 85/87/73 86/101/73 74/88/73
f 74/88/74 86/101/74 87/89/74
f 87/89/75 88/103/75 76/90/75
f 76/90/76 88/103/76 89/91/76
f 89/91/77 90/93/77 78/92/77
f 90/93/78 91/106/78 79/78/78
f 91/94/79 92/95/79 80/82/79
f 92/95/80 93/97/80 81/96/80
f 93/97/81 94/110/81 82/84/81
f 82/84/82 94/110/82 95/98/82
f 95/98/83 96/112/83 84/86/83
f 84/86/84 96/112/84 85/87/84
f 97/100/85 98/114/85 86/101/85
f 86/101/86 98/114/86 99/102/86
f 99/102/87 100/116/87 88/103/87
f 88/103/88 100/116/88 101/104/88
f 89/91/89 101/104/89 102/105/89
f 102/105/90 103/120/90 91/106/90
f 103/107/91 104/108/91 92/95/91
f 104/108/92 105/109/92 93/97/92
f 105/109/93 106/123/93 94/110/93
f 94/110/94 106/123/94 107/111/94
f 107/111/95 108/125/95 96/112/95
f 96/112/96 108/125/96 97/100/96
f 97/100/97 109/128/97 110/113/97
f 110/113/98 111/115/98 99/102/98
f 111/115/99 112/131/99 100/116/99
f 100/116/100 112/131/100 113/117/100
f 101/104/101 113/117/101 114/118/101
f 102/105/102 114/118/102 115/119/102
f 115/121/103 116/136/103 104/108/103
f 104/108/104 116/136/104 117/122/104
f 117/122/105 118/139/105 106/123/105
f 106/123/106 118/139/106 119/124/106
f 119/124/107 120/126/107 108/125/107
f 120/126/108 109/128/108 97/100/108
f 121/127/109 122/129/109 110/113/109
f 122/129/110 123/130/110 111/115/110
f 123/130/111 124/132/111 112/131/111
f 124/132/112 125/144/112 113/117/112
f 113/117/113 125/144/113 126/133/113
f 114/118/114 126/133/114 127/134/114
f 115/121/115 127/147/115 128/135/115
f 116/136/116 128/135/116 129/137/116
f 117/122/117 129/137/117 130/138/117
f 130/138/118 131/151/118 119/124/118
f 119/124/119 131/151/119 132/140/119
f 132/140/120 121/127/120 109/128/120
f 133/141/341 134/154/341 122/129/341
f 122/129/122 134/154/122 135/142/122
f 123/130/123 135/142/123 136/143/123
f 136/143/124 137/158/124 125/144/124
f 125/144/125 137/158/125 138/145/125
f 126/133/126 138/145/126 139/146/126
f 127/147/127 139/161/127 140/148/127
f 140/148/128 141/149/128 129/137/128
f 141/149/129 142/150/129 130/138/129
f 142/150/130 143/152/130 131/151/130
f 143/152/131 144/166/131 132/140/131
f 132/140/395 144/166/395 133/141/395
f 145/153/133 146/155/133 134/154/133
f 146/155/134 147/156/134 135/142/134
f 147/156/135 148/157/135 136/143/135
f 148/157/136 149/159/136 137/158/136
f 149/159/137 150/160/137 138/145/137
f 150/160/138 151/172/138 139/146/138
f 139/161/139 151/173/139 152/162/139
f 152/162/140 153/163/140 141/149/140
f 153/163/141 154/176/141 142/150/141
f 142/150/142 154/176/142 155/164/142
f 143/152/143 155/164/143 156/165/143
f 156/165/144 145/153/144 133/141/144
f 157/167/145 158/168/145 146/155/145
f 158/168/146 159/182/146 147/156/146
f 147/156/147 159/182/147 160/169/147
f 160/169/148 161/170/148 149/159/148
f 161/170/149 162/171/149 150/160/149
f 162/171/150 163/185/150 151/172/150
f 151/173/151 163/187/151 164/174/151
f 164/174/152 165/175/152 153/163/152
f 165/175/153 166/177/153 154/176/153
f 166/177/154 167/178/154 155/164/154
f 167/178/155 168/179/155 156/165/155
f 168/179/156 157/167/156 145/153/156
f 157/167/157 169/191/157 170/180/157
f 158/168/158 170/180/158 171/181/158
f 171/181/159 172/194/159 160/169/159
f 160/169/160 172/194/160 173/183/160
f 161/170/161 173/183/161 174/184/161
f 174/184/162 175/197/162 163/185/162
f 175/186/163 176/188/163 164/174/163
f 176/188/164 177/200/164 165/175/164
f 165/175/165 177/200/165 178/189/165
f 178/189/166 179/202/166 167/178/166
f 167/178/167 179/202/167 180/190/167
f 180/190/168 169/191/168 157/167/168
f 169/191/169 181/205/169 182/192/169
f 182/192/170 183/193/170 171/181/170
f 183/193/171 184/208/171 172/194/171
f 172/194/172 184/208/172 185/195/172
f 185/195/173 186/196/173 174/184/173
f 186/196/174 187/212/174 175/197/174
f 187/198/175 188/214/175 176/188/175
f 176/188/176 188/214/176 189/199/176
f 177/200/177 189/199/177 190/201/177
f 190/201/178 191/203/178 179/202/178
f 191/203/179 192/204/179 180/190/179
f 192/204/180 181/205/180 169/191/180
f 181/205/181 193/218/181 194/206/181
f 194/206/182 195/207/182 183/193/182
f 195/207/183 196/209/183 184/208/183
f 196/209/184 197/210/184 185/195/184
f 197/210/185 198/222/185 186/196/185
f 186/196/186 198/222/186 199/211/186
f 199/213/187 200/225/187 188/214/187
f 188/214/188 200/225/188 201/215/188
f 201/215/189 202/228/189 190/201/189
f 190/201/190 202/228/190 203/216/190
f 191/203/191 203/216/191 204/217/191
f 204/217/192 193/218/192 181/205/192
f 193/218/193 205/231/193 206/219/193
f 206/219/194 207/220/194 195/207/194
f 207/220/195 208/234/195 196/209/195
f 196/209/196 208/234/196 209/221/196
f 209/221/197 210/236/197 198/222/197
f 198/222/198 210/236/198 211/223/198
f 211/224/199 212/226/199 200/225/199
f 212/226/200 213/227/200 201/215/200
f 213/227/201 214/241/201 202/228/201
f 202/228/202 214/241/202 215/229/202
f 215/229/203 216/230/203 204/217/203
f 216/230/204 205/231/204 193/218/204
f 205/231/205 217/244/205 218/232/205
f 218/232/206 219/246/206 207/220/206
f 207/220/207 219/246/207 220/233/207
f 208/234/208 220/233/208 221/235/208
f 221/235/209 222/237/209 210/236/209
f 222/237/396 223/251/396 211/223/396
f 223/238/211 224/239/211 212/226/211
f 224/239/212 225/240/212 213/227/212
f 225/240/213 226/242/213 214/241/213
f 226/242/214 227/256/214 215/229/214
f 215/229/215 227/256/215 228/243/215
f 228/243/216 217/244/216 205/231/216
f 217/244/397 229/258/397 230/245/397
f 230/245/218 231/260/218 219/246/218
f 219/246/219 231/260/219 232/247/219
f 220/233/220 232/247/220 233/248/220
f 221/235/221 233/248/221 234/249/221
f 222/237/222 234/249/222 235/250/222
f 235/252/223 236/253/223 224/239/223
f 236/253/224 237/254/224 225/240/224
f 237/254/225 238/266/225 226/242/225
f 226/242/226 238/266/226 239/255/226
f 227/256/227 239/255/227 240/257/227
f 240/257/228 229/258/228 217/244/228
f 229/258/229 241/270/229 242/259/229
f 242/259/230 243/272/230 231/260/230
f 231/260/231 243/272/231 244/261/231
f 244/261/232 245/274/232 233/248/232
f 233/248/233 245/274/233 246/262/233
f 234/249/234 246/262/234 247/263/234
f 247/264/235 248/277/235 236/253/235
f 236/253/236 248/277/236 249/265/236
f 249/265/237 250/267/237 238/266/237
f 250/267/238 251/268/238 239/255/238
f 251/268/239 252/269/239 240/257/239
f 252/269/240 241/270/240 229/258/240
f 241/270/241 253/282/241 254/271/241
f 254/271/242 255/284/242 243/272/242
f 243/272/243 255/284/243 256/273/243
f 256/273/244 257/286/244 245/274/244
f 245/274/245 257/286/245 258/275/245
f 258/275/246 259/288/246 247/263/246
f 247/264/247 259/290/247 260/276/247
f 248/277/248 260/276/248 261/278/248
f 261/278/249 262/279/249 250/267/249
f 262/279/250 263/294/250 251/268/250
f 251/268/251 263/294/251 264/280/251
f 264/280/252 253/282/252 241/270/252
f 265/281/253 266/297/253 254/271/253
f 254/271/254 266/297/254 267/283/254
f 267/283/255 268/300/255 256/273/255
f 256/273/256 268/300/256 269/285/256
f 257/286/257 269/285/257 270/287/257
f 270/287/258 271/304/258 259/288/258
f 271/289/259 272/291/259 260/276/259
f 272/291/260 273/292/260 261/278/260
f 273/292/261 274/293/261 262/279/261
f 274/293/262 275/295/262 263/294/262
f 275/295/263 276/309/263 264/280/263
f 264/280/264 276/309/264 265/281/264
f 277/296/265 278/298/265 266/297/265
f 278/298/266 279/299/266 267/283/266
f 279/299/267 280/301/267 268/300/267
f 280/301/268 281/302/268 269/285/268
f 281/302/269 282/315/269 270/287/269
f 270/287/270 282/315/270 283/303/270
f 283/305/271 284/306/271 272/291/271
f 284/306/272 285/307/272 273/292/272
f 285/307/273 286/319/273 274/293/273
f 274/293/274 286/319/274 287/308/274
f 287/308/275 288/310/275 276/309/275
f 288/310/276 277/296/276 265/281/276
f 289/311/277 290/312/277 278/298/277
f 290/312/278 291/313/278 279/299/278
f 291/313/279 292/634/279 280/301/279
f 280/301/280 292/634/280 293/314/280
f 293/314/281 294/635/281 282/315/281
f 282/315/282 294/635/282 295/316/282
f 283/305/283 295/636/283 296/317/283
f 296/317/284 297/637/284 285/307/284
f 285/307/285 297/637/285 298/318/285
f 286/319/286 298/318/286 299/320/286
f 287/308/287 299/320/287 300/321/287
f 288/310/288 300/321/288 289/311/288
f 301/322/6 302/325/6 290/323/6
f 302/325/5 303/345/5 291/326/5
f 291/326/289 303/345/289 304/327/289
f 292/328/290 304/327/290 305/329/290
f 305/329/2 306/332/2 294/331/2
f 306/332/1 307/349/1 295/333/1
f 295/334/12 307/350/12 308/335/12
f 308/335/11 309/352/11 297/337/11
f 297/337/291 309/352/291 310/338/291
f 310/338/292 311/341/292 299/340/292
f 311/341/8 312/356/8 300/342/8
f 300/342/7 312/356/7 301/322/7
f 301/322/18 313/358/18 314/343/18
f 302/325/17 314/343/17 315/344/17
f 303/345/293 315/344/293 316/346/293
f 304/327/294 316/346/294 317/347/294
f 317/347/14 318/348/14 306/332/14
f 318/348/13 319/362/13 307/349/13
f 307/350/24 319/363/24 320/351/24
f 320/351/23 321/353/23 309/352/23
f 321/353/295 322/354/295 310/338/295
f 322/354/296 323/367/296 311/341/296
f 311/341/20 323/367/20 324/355/20
f 324/355/19 313/358/19 301/322/19
f 325/357/30 326/370/30 314/343/30
f 314/343/297 326/370/297 327/359/297
f 327/359/28 328/373/28 316/346/28
f 316/346/27 328/373/27 329/360/27
f 329/360/298 330/361/298 318/348/298
f 330/361/25 331/377/25 319/362/25
f 319/363/36 331/378/36 332/364/36
f 332/364/299 333/365/299 321/353/299
f 333/365/34 334/381/34 322/354/34
f 322/354/33 334/381/33 335/366/33
f 323/367/300 335/366/300 336/368/300
f 336/368/31 325/357/31 313/358/31
f 337/369/42 338/371/42 326/370/42
f 338/371/301 339/372/301 327/359/301
f 339/372/302 340/374/302 328/373/302
f 340/374/303 341/375/303 329/360/303
f 341/375/304 342/376/304 330/361/304
f 342/376/37 343/389/37 331/377/37
f 331/378/48 343/391/48 344/379/48
f 344/379/305 345/393/305 333/365/305
f 333/365/306 345/393/306 346/380/306
f 334/381/307 346/380/307 347/382/307
f 335/366/308 347/382/308 348/383/308
f 348/383/43 337/369/43 325/357/43
f 349/384/54 350/385/54 338/371/54
f 350/385/309 351/398/309 339/372/309
f 339/372/52 351/398/52 352/386/52
f 352/386/51 353/387/51 341/375/51
f 353/387/310 354/388/310 342/376/310
f 354/388/49 355/402/49 343/389/49
f 355/390/60 356/392/60 344/379/60
f 356/392/311 357/404/311 345/393/311
f 345/393/58 357/404/58 358/394/58
f 358/394/57 359/406/57 347/382/57
f 347/382/312 359/406/312 360/395/312
f 360/395/55 349/384/55 337/369/55
f 361/396/313 362/397/313 350/385/313
f 362/397/314 363/410/314 351/398/314
f 351/398/64 363/410/64 364/399/64
f 364/399/63 365/400/63 353/387/63
f 365/400/315 366/401/315 354/388/315
f 366/401/316 367/415/316 355/402/316
f 355/390/317 367/417/317 368/403/317
f 368/403/318 369/419/318 357/404/318
f 357/404/70 369/419/70 370/405/70
f 370/405/69 371/407/69 359/406/69
f 371/407/319 372/421/319 360/395/319
f 360/395/398 372/421/398 361/396/398
f 373/408/320 374/423/320 362/397/320
f 362/397/321 374/423/321 375/409/321
f 363/410/322 375/409/322 376/411/322
f 364/399/323 376/411/323 377/412/323
f 365/400/324 377/412/324 378/413/324
f 366/401/325 378/413/325 379/414/325
f 379/416/326 380/429/326 368/403/326
f 368/403/327 380/429/327 381/418/327
f 381/418/328 382/432/328 370/405/328
f 370/405/329 382/432/329 383/420/329
f 383/420/330 384/434/330 372/421/330
f 372/421/331 384/434/331 373/408/331
f 385/422/90 386/424/90 374/423/90
f 386/424/89 387/425/89 375/409/89
f 387/425/332 388/438/332 376/411/332
f 376/411/333 388/438/333 389/426/333
f 389/426/86 390/427/86 378/413/86
f 390/427/85 391/441/85 379/414/85
f 391/428/96 392/430/96 380/429/96
f 392/430/95 393/431/95 381/418/95
f 393/431/334 394/444/334 382/432/334
f 382/432/335 394/444/335 395/433/335
f 395/433/92 396/435/92 384/434/92
f 396/435/91 385/422/91 373/408/91
f 385/422/102 397/447/102 398/436/102
f 386/424/101 398/436/101 399/437/101
f 399/437/100 400/450/100 388/438/100
f 388/438/99 400/450/99 401/439/99
f 389/426/98 401/439/98 402/440/98
f 402/440/97 403/453/97 391/441/97
f 391/428/108 403/455/108 404/442/108
f 404/442/107 405/443/107 393/431/107
f 405/443/106 406/458/106 394/444/106
f 394/444/105 406/458/105 407/445/105
f 395/433/104 407/445/104 408/446/104
f 408/446/103 397/447/103 385/422/103
f 397/447/114 409/462/114 410/448/114
f 410/448/113 411/449/113 399/437/113
f 411/449/336 412/465/336 400/450/336
f 400/450/337 412/465/337 413/451/337
f 413/451/110 414/467/110 402/440/110
f 402/440/109 414/467/109 415/452/109
f 415/454/120 416/456/120 404/442/120
f 416/456/119 417/457/119 405/443/119
f 417/457/338 418/471/338 406/458/338
f 406/458/339 418/471/339 419/459/339
f 419/459/116 420/460/116 408/446/116
f 420/460/115 409/462/115 397/447/115
f 421/461/340 422/463/340 410/448/340
f 422/463/125 423/464/125 411/449/125
f 423/464/124 424/478/124 412/465/124
f 412/465/123 424/478/123 425/466/123
f 425/466/122 426/481/122 414/467/122
f 414/467/341 426/481/341 427/468/341
f 427/469/132 428/484/132 416/456/132
f 416/456/131 428/484/131 429/470/131
f 429/470/130 430/472/130 418/471/130
f 430/472/129 431/473/129 419/459/129
f 431/473/128 432/474/128 420/460/128
f 432/474/342 421/461/342 409/462/342
f 433/475/138 434/476/138 422/463/138
f 434/476/137 435/490/137 423/464/137
f 423/464/136 435/490/136 436/477/136
f 424/478/135 436/477/135 437/479/135
f 425/466/134 437/479/134 438/480/134
f 426/481/133 438/480/133 439/482/133
f 439/483/144 440/495/144 428/484/144
f 428/484/143 440/495/143 441/485/143
f 441/485/142 442/486/142 430/472/142
f 442/486/141 443/498/141 431/473/141
f 431/473/140 443/498/140 444/487/140
f 432/474/139 444/487/139 433/475/139
f 433/475/150 445/502/150 446/488/150
f 434/476/149 446/488/149 447/489/149
f 435/490/148 447/489/148 448/491/148
f 448/491/147 449/492/147 437/479/147
f 449/492/146 450/493/146 438/480/146
f 450/493/145 451/507/145 439/482/145
f 451/494/156 452/509/156 440/495/156
f 440/495/155 452/509/155 453/496/155
f 453/496/154 454/497/154 442/486/154
f 454/497/153 455/499/153 443/498/153
f 455/499/152 456/500/152 444/487/152
f 456/500/151 445/502/151 433/475/151
f 457/501/162 458/514/162 446/488/162
f 446/488/161 458/514/161 459/503/161
f 459/503/160 460/504/160 448/491/160
f 460/504/159 461/505/159 449/492/159
f 461/505/158 462/506/158 450/493/158
f 462/506/343 463/518/343 451/507/343
f 451/494/344 463/519/344 464/508/344
f 464/508/167 465/510/167 453/496/167
f 465/510/166 466/522/166 454/497/166
f 454/497/165 466/522/165 467/511/165
f 467/511/164 468/512/164 456/500/164
f 468/512/163 457/501/163 445/502/163
f 469/513/174 470/526/174 458/514/174
f 458/514/173 470/526/173 471/515/173
f 471/515/345 472/528/345 460/504/345
f 460/504/346 472/528/346 473/516/346
f 473/516/170 474/531/170 462/506/170
f 462/506/169 474/531/169 475/517/169
f 463/519/180 475/534/180 476/520/180
f 464/508/179 476/520/179 477/521/179
f 477/521/347 478/523/347 466/522/347
f 478/523/348 479/524/348 467/511/348
f 479/524/176 480/539/176 468/512/176
f 468/512/175 480/539/175 469/513/175
f 481/525/186 482/541/186 470/526/186
f 470/526/185 482/541/185 483/527/185
f 483/527/184 484/529/184 472/528/184
f 484/529/183 485/530/183 473/516/183
f 485/530/182 486/532/182 474/531/182
f 486/532/181 487/546/181 475/517/181
f 487/533/192 488/535/192 476/520/192
f 488/535/191 489/536/191 477/521/191
f 489/536/190 490/537/190 478/523/190
f 490/537/189 491/538/189 479/524/189
f 491/538/188 492/550/188 480/539/188
f 480/539/187 492/550/187 481/525/187
f 481/525/198 493/552/198 494/540/198
f 482/541/197 494/540/197 495/542/197
f 495/542/349 496/543/349 484/529/349
f 496/543/350 497/544/350 485/530/350
f 497/544/194 498/556/194 486/532/194
f 486/532/193 498/556/193 499/545/193
f 487/533/204 499/559/204 500/547/204
f 500/547/203 501/561/203 489/536/203
f 489/536/351 501/561/351 502/548/351
f 502/548/352 503/563/352 491/538/352
f 491/538/200 503/563/200 504/549/200
f 504/549/199 493/552/199 481/525/199
f 505/551/210 506/566/210 494/540/210
f 494/540/353 506/566/353 507/553/353
f 507/553/354 508/568/354 496/543/354
f 496/543/355 508/568/355 509/554/355
f 497/544/356 509/554/356 510/555/356
f 498/556/205 510/555/205 511/557/205
f 511/558/216 512/560/216 500/547/216
f 512/560/359 513/574/359 501/561/359
f 501/561/360 513/574/360 514/562/360
f 514/562/361 515/576/361 503/563/361
f 503/563/362 515/576/362 516/564/362
f 516/564/363 505/551/363 493/552/363
f 505/551/364 517/580/364 518/565/364
f 518/565/365 519/567/365 507/553/365
f 519/567/220 520/569/220 508/568/220
f 520/569/219 521/584/219 509/554/219
f 509/554/366 521/584/366 522/570/366
f 510/555/217 522/570/217 523/571/217
f 523/572/367 524/587/367 512/560/367
f 512/560/368 524/587/368 525/573/368
f 525/573/226 526/575/226 514/562/226
f 526/575/225 527/577/225 515/576/225
f 527/577/369 528/578/369 516/564/369
f 528/578/370 517/580/370 505/551/370
f 529/579/234 530/581/234 518/565/234
f 530/581/371 531/593/371 519/567/371
f 519/567/232 531/593/232 532/582/232
f 520/569/231 532/582/231 533/583/231
f 533/583/372 534/585/372 522/570/372
f 534/585/229 535/597/229 523/571/229
f 535/586/240 536/599/240 524/587/240
f 524/587/373 536/599/373 537/588/373
f 537/588/238 538/589/238 526/575/238
f 538/589/237 539/602/237 527/577/237
f 527/577/374 539/602/374 540/590/374
f 540/590/235 529/579/235 517/580/235
f 541/591/246 542/592/246 530/581/246
f 542/592/375 543/606/375 531/593/375
f 531/593/376 543/606/376 544/594/376
f 532/582/377 544/594/377 545/595/377
f 545/595/378 546/608/378 534/585/378
f 534/585/241 546/608/241 547/596/241
f 535/586/252 547/611/252 548/598/252
f 548/598/379 549/600/379 537/588/379
f 549/600/380 550/601/380 538/589/380
f 550/601/381 551/603/381 539/602/381
f 551/603/382 552/615/382 540/590/382
f 540/590/247 552/615/247 541/591/247
f 541/591/258 553/617/258 554/604/258
f 542/592/383 554/604/383 555/605/383
f 555/605/256 556/620/256 544/594/256
f 544/594/255 556/620/255 557/607/255
f 557/607/384 558/623/384 546/608/384
f 546/608/253 558/623/253 559/609/253
f 559/610/264 560/626/264 548/598/264
f 548/598/385 560/626/385 561/612/385
f 561/612/262 562/613/262 550/601/262
f 562/613/261 563/614/261 551/603/261
f 563/614/386 564/616/386 552/615/386
f 564/616/259 553/617/259 541/591/259
f 553/617/270 565/631/270 566/618/270
f 554/604/269 566/618/269 567/619/269
f 567/619/387 568/621/387 556/620/387
f 568/621/388 569/622/388 557/607/388
f 569/622/266 570/632/266 558/623/266
f 558/623/265 570/632/265 571/624/265
f 571/625/276 572/627/276 560/626/276
f 572/627/275 573/628/275 561/612/275
f 573/628/389 574/633/389 562/613/389
f 562/613/390 574/633/390 575/629/390
f 575/629/272 576/630/272 564/616/272
f 576/630/271 565/631/271 553/617/271
f 1/3/282 2/2/282 566/618/282
f 566/618/281 2/2/281 3/5/281
f 3/5/391 4/7/391 568/621/391
f 4/7/392 5/9/392 569/622/392
f 569/622/278 5/9/278 6/11/278
f 6/11/277 7/13/277 571/624/277
f 7/16/288 8/15/288 572/627/288
f 8/15/287 9/18/287 573/628/287
f 573/628/393 9/18/393 10/20/393
f 574/633/394 10/20/394 11/21/394
f 11/21/284 12/23/284 576/630/284
f 576/630/283 12/23/283 1/3/283
